<?xml version="1.0" encoding="utf-8"?>
<!-- Generator: Adobe Illustrator 16.0.0, SVG Export Plug-In . SVG Version: 6.00 Build 0)  -->
<!DOCTYPE svg PUBLIC "-//W3C//DTD SVG 1.1//EN" "http://www.w3.org/Graphics/SVG/1.1/DTD/svg11.dtd">
<svg version="1.1" id="Layer_1" xmlns="http://www.w3.org/2000/svg" xmlns:xlink="http://www.w3.org/1999/xlink" x="0px" y="0px"
	 width="10.849px" height="10.875px" viewBox="0 0 10.849 10.875" enable-background="new 0 0 10.849 10.875" xml:space="preserve">
<g>
	<rect x="0.543" y="-1.573" fill="none" width="27.586" height="11.437"/>
	<ellipse fill="#010101" cx="5.612" cy="5.438" rx="5.022" ry="4.916"/>
	<path fill="#FFFFFF" d="M5.601,10.136c-2.578,0-4.675-2.096-4.675-4.674c0-2.578,2.097-4.676,4.675-4.676s4.676,2.098,4.676,4.676
		C10.276,8.04,8.179,10.136,5.601,10.136z M5.601,1.232c-2.332,0-4.229,1.898-4.229,4.23c0,2.332,1.897,4.23,4.229,4.23
		c2.333,0,4.23-1.898,4.23-4.23C9.831,3.13,7.934,1.232,5.601,1.232z"/>
	<g transform="translate(0.000000,914.000000) scale(0.100000,-0.100000)">
		<path fill="#FFFFFF" d="M31.562,9106.894c-2.402-0.317-4.487-2.017-5.283-4.341c-0.332-0.996-0.303,0.469-0.332-16.88
			c-0.01-10.698,0-15.771,0.034-16.084c0.132-1.113,0.552-2.207,1.211-3.105c0.317-0.43,0.962-1.094,1.372-1.367
			c0.679-0.488,1.572-0.898,2.412-1.094c0.4-0.098,0.552-0.098,10.659-0.137c5.645-0.039,16.758-0.039,24.688-0.039l14.429,0.02
			l0.4,0.117c0.64,0.156,0.977,0.254,1.582,0.566c1.929,0.957,3.223,2.813,3.506,5c0.034,0.273,0.054,5.078,0.054,16.245
			c0,13.081-0.02,15.889-0.073,16.104c-0.186,0.815-0.513,1.543-0.952,2.197c-0.327,0.513-0.947,1.162-1.47,1.553
			c-0.41,0.322-1.416,0.84-1.885,0.986c-0.137,0.044-0.444,0.127-0.679,0.181l-0.43,0.107H56.353
			C42.388,9106.933,31.748,9106.913,31.562,9106.894z M68.564,9091.967c-7.915-7.915-11.65-11.621-11.812-11.719
			c-0.327-0.186-0.718-0.186-1.025,0c-0.137,0.073-4.473,4.37-11.831,11.719L32.3,9103.544h23.911h23.926L68.564,9091.967z
			 M83.032,9085.712l-0.02-16.143l-0.103-0.371c-0.269-0.957-0.713-1.484-1.533-1.816l-0.337-0.156l-8.149,8.179l-8.145,8.174
			l9.141,9.141c5.01,5.024,9.136,9.131,9.145,9.131C83.052,9101.85,83.052,9094.594,83.032,9085.712z M38.569,9092.724l8.979-8.989
			l-8.232-8.232l-8.237-8.237l-0.298,0.117c-0.566,0.293-0.977,0.82-1.157,1.582c-0.073,0.313-0.093,1.406-0.093,16.533
			c-0.01,8.921,0,16.216,0.02,16.216S33.633,9097.675,38.569,9092.724z M52.739,9078.578c2.124-2.144,2.925-2.925,3.057-2.979
			c0.239-0.088,0.63-0.088,0.864,0.01c0.132,0.044,0.977,0.869,2.988,2.871l2.808,2.813l7.09-7.095
			c3.892-3.906,7.08-7.09,7.08-7.109s-9.263-0.02-20.591-0.02c-11.318,0-20.576,0-20.576,0.02c0,0.039,14.355,14.39,14.38,14.39
			C49.858,9081.479,51.162,9080.18,52.739,9078.578z"/>
	</g>
</g>
</svg>
