<?xml version="1.0" encoding="UTF-8" standalone="no"?>
<svg
   xmlns:dc="http://purl.org/dc/elements/1.1/"
   xmlns:cc="http://creativecommons.org/ns#"
   xmlns:rdf="http://www.w3.org/1999/02/22-rdf-syntax-ns#"
   xmlns:svg="http://www.w3.org/2000/svg"
   xmlns="http://www.w3.org/2000/svg"
   xmlns:sodipodi="http://sodipodi.sourceforge.net/DTD/sodipodi-0.dtd"
   xmlns:inkscape="http://www.inkscape.org/namespaces/inkscape"
   viewBox="0 0 13.391999 13.106667"
   height="13.106667"
   width="13.391999"
   xml:space="preserve"
   id="svg2"
   version="1.1"
   sodipodi:docname="facebook.svg"
   inkscape:version="0.92.2 (5c3e80d, 2017-08-06)"><sodipodi:namedview
     pagecolor="#ffffff"
     bordercolor="#666666"
     borderopacity="1"
     objecttolerance="10"
     gridtolerance="10"
     guidetolerance="10"
     inkscape:pageopacity="0"
     inkscape:pageshadow="2"
     inkscape:window-width="1920"
     inkscape:window-height="1017"
     id="namedview17"
     showgrid="false"
     inkscape:zoom="16.275862"
     inkscape:cx="6.446"
     inkscape:cy="6.5546667"
     inkscape:window-x="-8"
     inkscape:window-y="-8"
     inkscape:window-maximized="1"
     inkscape:current-layer="svg2" /><metadata
     id="metadata8"><rdf:RDF><cc:Work
         rdf:about=""><dc:format>image/svg+xml</dc:format><dc:type
           rdf:resource="http://purl.org/dc/dcmitype/StillImage" /></cc:Work></rdf:RDF></metadata><defs
     id="defs6"><clipPath
       id="clipPath18"
       clipPathUnits="userSpaceOnUse"><path
         id="path16"
         d="M 0,10.875 H 10.849 V 0 H 0 Z"
         inkscape:connector-curvature="0" /></clipPath></defs><g
     transform="matrix(1.3333333,0,0,-1.3333333,-0.78639998,13.802)"
     id="g10"><g
       id="g12"><g
         clip-path="url(#clipPath18)"
         id="g14"><g
           transform="translate(0.5898,5.4375)"
           id="g20"><path
             id="path22"
             style="fill:#000000;fill-opacity:1;fill-rule:nonzero;stroke:none"
             d="m 0,0 c 0,-2.717 2.248,-4.916 5.022,-4.916 2.774,0 5.022,2.199 5.022,4.916 0,2.712 -2.248,4.914 -5.022,4.914 C 2.248,4.914 0,2.712 0,0"
             inkscape:connector-curvature="0" /></g><g
           transform="translate(5.6006,9.6431)"
           id="g24"><path
             id="path26"
             style="fill:#ffffff;fill-opacity:1;fill-rule:nonzero;stroke:none"
             d="m 0,0 c -2.332,0 -4.229,-1.898 -4.229,-4.23 0,-2.332 1.897,-4.23 4.229,-4.23 2.333,0 4.23,1.898 4.23,4.23 C 4.23,-1.898 2.333,0 0,0 m 0,-8.904 c -2.578,0 -4.675,2.096 -4.675,4.674 0,2.578 2.097,4.676 4.675,4.676 2.578,0 4.676,-2.098 4.676,-4.676 0,-2.578 -2.098,-4.674 -4.676,-4.674"
             inkscape:connector-curvature="0" /></g><g
           transform="translate(5.9297,2.0586)"
           id="g28"><path
             id="path30"
             style="fill:#ffffff;fill-opacity:1;fill-rule:nonzero;stroke:none"
             d="M 0,0 V 5.223 L -0.006,5.26 C 0.005,5.19 -0.007,5.159 -0.02,5.146 -0.018,5.147 0.175,5.326 1.043,5.221 L 1.168,6.252 C 0.229,6.367 -0.404,6.242 -0.765,5.871 -1.01,5.62 -1.064,5.312 -1.034,5.107 L -1.039,5.185 V 0 Z"
             inkscape:connector-curvature="0" /></g><path
           id="path32"
           style="fill:#ffffff;fill-opacity:1;fill-rule:nonzero;stroke:none"
           d="M 4.125,6.267 H 7.051 V 5.228 H 4.125 Z"
           inkscape:connector-curvature="0" /></g></g></g></svg>