<?xml version="1.0" encoding="UTF-8" standalone="no"?>
<svg
   xmlns:dc="http://purl.org/dc/elements/1.1/"
   xmlns:cc="http://creativecommons.org/ns#"
   xmlns:rdf="http://www.w3.org/1999/02/22-rdf-syntax-ns#"
   xmlns:svg="http://www.w3.org/2000/svg"
   xmlns="http://www.w3.org/2000/svg"
   xmlns:sodipodi="http://sodipodi.sourceforge.net/DTD/sodipodi-0.dtd"
   xmlns:inkscape="http://www.inkscape.org/namespaces/inkscape"
   viewBox="0 0 13.391999 13.106667"
   height="13.106667"
   width="13.391999"
   xml:space="preserve"
   id="svg2"
   version="1.1"
   sodipodi:docname="instagram.svg"
   inkscape:version="0.92.2 (5c3e80d, 2017-08-06)"><sodipodi:namedview
     pagecolor="#ffffff"
     bordercolor="#666666"
     borderopacity="1"
     objecttolerance="10"
     gridtolerance="10"
     guidetolerance="10"
     inkscape:pageopacity="0"
     inkscape:pageshadow="2"
     inkscape:window-width="1920"
     inkscape:window-height="1017"
     id="namedview20"
     showgrid="false"
     inkscape:zoom="16.275862"
     inkscape:cx="6.446"
     inkscape:cy="6.5546667"
     inkscape:window-x="-8"
     inkscape:window-y="-8"
     inkscape:window-maximized="1"
     inkscape:current-layer="svg2" /><metadata
     id="metadata8"><rdf:RDF><cc:Work
         rdf:about=""><dc:format>image/svg+xml</dc:format><dc:type
           rdf:resource="http://purl.org/dc/dcmitype/StillImage" /></cc:Work></rdf:RDF></metadata><defs
     id="defs6"><clipPath
       id="clipPath18"
       clipPathUnits="userSpaceOnUse"><path
         id="path16"
         d="M 0,10.875 H 10.849 V 0 H 0 Z"
         inkscape:connector-curvature="0" /></clipPath></defs><g
     transform="matrix(1.3333333,0,0,-1.3333333,-0.78639998,13.802)"
     id="g10"><g
       id="g12"><g
         clip-path="url(#clipPath18)"
         id="g14"><g
           transform="translate(0.5898,5.4375)"
           id="g20"><path
             id="path22"
             style="fill:#000000;fill-opacity:1;fill-rule:nonzero;stroke:none"
             d="m 0,0 c 0,-2.717 2.248,-4.916 5.022,-4.916 2.774,0 5.022,2.199 5.022,4.916 0,2.712 -2.248,4.914 -5.022,4.914 C 2.248,4.914 0,2.712 0,0"
             inkscape:connector-curvature="0" /></g><g
           transform="translate(5.6006,9.6431)"
           id="g24"><path
             id="path26"
             style="fill:#ffffff;fill-opacity:1;fill-rule:nonzero;stroke:none"
             d="m 0,0 c -2.332,0 -4.229,-1.898 -4.229,-4.23 0,-2.332 1.897,-4.23 4.229,-4.23 2.333,0 4.23,1.898 4.23,4.23 C 4.23,-1.898 2.333,0 0,0 m 0,-8.904 c -2.578,0 -4.675,2.096 -4.675,4.674 0,2.578 2.097,4.676 4.675,4.676 2.578,0 4.676,-2.098 4.676,-4.676 0,-2.578 -2.098,-4.674 -4.676,-4.674"
             inkscape:connector-curvature="0" /></g><g
           transform="translate(7.0718,7.7485)"
           id="g28"><path
             id="path30"
             style="fill:#ffffff;fill-opacity:1;fill-rule:nonzero;stroke:none"
             d="M 0,0 C 0.404,-0.05 0.732,-0.339 0.832,-0.732 0.862,-0.852 0.86,-0.745 0.86,-2.313 0.86,-3.561 0.859,-3.737 0.854,-3.782 0.832,-3.948 0.769,-4.106 0.669,-4.241 0.627,-4.297 0.525,-4.399 0.469,-4.44 0.334,-4.54 0.177,-4.604 0.012,-4.625 -0.034,-4.629 -0.21,-4.631 -1.457,-4.631 c -1.569,0 -1.462,-0.002 -1.582,0.027 -0.395,0.102 -0.687,0.434 -0.732,0.838 -0.003,0.029 -0.004,0.465 -0.003,1.479 l 10e-4,1.437 0.012,0.06 c 0.071,0.354 0.317,0.635 0.653,0.746 0.057,0.019 0.151,0.04 0.202,0.045 C -2.866,0.006 -0.035,0.004 0,0 M -2.93,0.48 C -2.993,0.475 -3.101,0.456 -3.166,0.438 -3.677,0.308 -4.079,-0.095 -4.21,-0.605 -4.228,-0.674 -4.245,-0.778 -4.252,-0.85 c -0.002,-0.034 -0.004,-0.548 -0.004,-1.462 0,-1.532 -10e-4,-1.468 0.025,-1.605 0.068,-0.375 0.282,-0.707 0.592,-0.925 0.218,-0.155 0.462,-0.241 0.733,-0.262 0.093,-0.006 2.897,-0.004 2.949,0.004 0.252,0.035 0.441,0.103 0.631,0.226 0.085,0.055 0.141,0.102 0.222,0.182 0.14,0.137 0.24,0.277 0.316,0.451 0.059,0.131 0.092,0.256 0.116,0.426 0.008,0.053 0.011,2.856 0.004,2.95 -0.02,0.256 -0.099,0.488 -0.236,0.697 C 0.876,0.164 0.535,0.389 0.146,0.461 0.01,0.485 0.075,0.484 -1.468,0.484 -2.248,0.484 -2.906,0.481 -2.93,0.48"
             inkscape:connector-curvature="0" /></g><g
           transform="translate(7.0913,7.2964)"
           id="g32"><path
             id="path34"
             style="fill:#ffffff;fill-opacity:1;fill-rule:nonzero;stroke:none"
             d="m 0,0 c -0.122,-0.028 -0.215,-0.119 -0.245,-0.238 -0.01,-0.041 -0.009,-0.112 0.002,-0.156 0.048,-0.188 0.255,-0.29 0.435,-0.214 0.048,0.02 0.111,0.07 0.138,0.11 0.076,0.112 0.075,0.262 -0.003,0.371 C 0.288,-0.072 0.235,-0.033 0.169,-0.01 0.137,0.002 0.123,0.003 0.078,0.005 0.044,0.006 0.017,0.004 0,0"
             inkscape:connector-curvature="0" /></g><g
           transform="translate(5.6978,6.3979)"
           id="g36"><path
             id="path38"
             style="fill:#ffffff;fill-opacity:1;fill-rule:nonzero;stroke:none"
             d="m 0,0 c 0.187,-0.016 0.372,-0.091 0.521,-0.209 0.05,-0.04 0.131,-0.124 0.169,-0.175 0.098,-0.131 0.158,-0.274 0.184,-0.439 0.011,-0.068 0.011,-0.213 0,-0.281 -0.066,-0.424 -0.392,-0.75 -0.816,-0.817 -0.067,-0.01 -0.218,-0.01 -0.283,0 -0.319,0.052 -0.586,0.247 -0.726,0.533 -0.145,0.296 -0.13,0.643 0.04,0.924 0.077,0.128 0.201,0.251 0.329,0.328 C -0.408,-0.03 -0.203,0.018 0,0 M -0.176,0.426 C -0.519,0.399 -0.828,0.258 -1.066,0.02 c -0.22,-0.22 -0.355,-0.497 -0.399,-0.815 -0.011,-0.077 -0.011,-0.26 0,-0.339 0.031,-0.227 0.102,-0.415 0.224,-0.597 0.19,-0.287 0.474,-0.491 0.803,-0.577 0.205,-0.055 0.428,-0.061 0.635,-0.018 0.268,0.055 0.508,0.184 0.702,0.38 0.222,0.221 0.357,0.495 0.399,0.81 0.01,0.074 0.011,0.258 0.002,0.328 C 1.259,-0.482 1.124,-0.203 0.897,0.022 0.679,0.24 0.399,0.377 0.087,0.418 0.037,0.425 -0.129,0.43 -0.176,0.426"
             inkscape:connector-curvature="0" /></g></g></g></g></svg>