<?xml version="1.0" encoding="UTF-8" standalone="no"?>
<!-- Created with Inkscape (http://www.inkscape.org/) -->

<svg
   xmlns:dc="http://purl.org/dc/elements/1.1/"
   xmlns:cc="http://creativecommons.org/ns#"
   xmlns:rdf="http://www.w3.org/1999/02/22-rdf-syntax-ns#"
   xmlns:svg="http://www.w3.org/2000/svg"
   xmlns="http://www.w3.org/2000/svg"
   xmlns:sodipodi="http://sodipodi.sourceforge.net/DTD/sodipodi-0.dtd"
   xmlns:inkscape="http://www.inkscape.org/namespaces/inkscape"
   width="20.671896mm"
   height="20.896791mm"
   viewBox="0 0 20.671896 20.896791"
   version="1.1"
   id="svg1084"
   inkscape:version="0.92.2 (5c3e80d, 2017-08-06)"
   sodipodi:docname="logo.svg">
  <defs
     id="defs1078" />
  <sodipodi:namedview
     id="base"
     pagecolor="#ffffff"
     bordercolor="#666666"
     borderopacity="1.0"
     inkscape:pageopacity="0.0"
     inkscape:pageshadow="2"
     inkscape:zoom="3.959798"
     inkscape:cx="72.213532"
     inkscape:cy="42.812765"
     inkscape:document-units="mm"
     inkscape:current-layer="XMLID_2_"
     showgrid="false"
     inkscape:window-width="1920"
     inkscape:window-height="1017"
     inkscape:window-x="-8"
     inkscape:window-y="-8"
     inkscape:window-maximized="1" />
  <metadata
     id="metadata1081">
    <rdf:RDF>
      <cc:Work
         rdf:about="">
        <dc:format>image/svg+xml</dc:format>
        <dc:type
           rdf:resource="http://purl.org/dc/dcmitype/StillImage" />
        <dc:title />
      </cc:Work>
    </rdf:RDF>
  </metadata>
  <g
     inkscape:label="Layer 1"
     inkscape:groupmode="layer"
     id="layer1"
     transform="translate(-100.0331,-147.45637)">
    <g
       transform="matrix(0.26458333,0,0,0.26458333,97.371127,141.65644)"
       id="XMLID_2_">
      <g
         id="g52"
         style="fill:#fff7f7;fill-opacity:1">
        <path
           style="fill:#fff7f7;stroke:#000000;stroke-width:0.5;stroke-miterlimit:10;fill-opacity:1"
           inkscape:connector-curvature="0"
           stroke-miterlimit="10"
           d="m 20.646,82.865 v -0.01 c -4.42,-6 -7.04,-13.44 -7.04,-21.51 0,-17.8 12.42,-32.1 29.08,-34.92"
           id="path16" />
        <path
           style="fill:#fff7f7;stroke:#000000;stroke-width:0.5;stroke-miterlimit:10;fill-opacity:1"
           inkscape:connector-curvature="0"
           stroke-miterlimit="10"
           d="m 67.586,91.815 c -0.9,0.57 -1.85,1.13 -2.85,1.66 -1.98,1.05 -5.31,2.37 -7.93,2.939 -2.34,0.5 -6.04,0.9 -8.24,0.9 -7.06,0 -13.63,-2.52 -19.11,-5.979"
           id="path18" />
        <path
           style="fill:#fff7f7;stroke:#000000;stroke-width:0.5;stroke-miterlimit:10;fill-opacity:1"
           inkscape:connector-curvature="0"
           stroke-miterlimit="10"
           d="m 72.917,87.766 c -1.16,1.04 -2.47,2.09 -3.91,3.1"
           id="path20" />
        <path
           style="fill:#fff7f7;stroke:#000000;stroke-width:0.5;stroke-miterlimit:10;fill-opacity:1"
           inkscape:connector-curvature="0"
           stroke-miterlimit="10"
           d="m 77.866,82.186 c -0.03,0.05 -0.07,0.1 -0.1,0.15 -0.82,1.21 -1.95,2.6 -3.37,4.02"
           id="path22" />
        <polyline
           style="fill:#fff7f7;stroke:#000000;stroke-width:0.25;stroke-miterlimit:10;fill-opacity:1"
           stroke-miterlimit="10"
           points="42.146,45.905 42.146,45.916     32.736,87.275 32.736,87.285   "
           id="polyline24" />
        <line
           style="fill:#fff7f7;stroke:#000000;stroke-width:0.25;stroke-miterlimit:10;fill-opacity:1"
           stroke-miterlimit="10"
           x1="44.445999"
           y1="35.765999"
           x2="42.675999"
           y2="43.544998"
           id="line26" />
        <polyline
           style="fill:#fff7f7;stroke:#000000;stroke-width:0.25;stroke-miterlimit:10;fill-opacity:1"
           stroke-miterlimit="10"
           points="46.676,25.936 46.667,25.976     45.017,33.266   "
           id="polyline28" />
        <line
           style="fill:#fff7f7;stroke:#000000;stroke-width:0.25;stroke-miterlimit:10;fill-opacity:1"
           stroke-miterlimit="10"
           x1="45.016998"
           y1="33.265999"
           x2="74.186996"
           y2="86.185997"
           id="line30" />
        <polyline
           style="fill:#fff7f7;stroke:#000000;stroke-width:0.25;stroke-miterlimit:10;fill-opacity:1"
           stroke-miterlimit="10"
           points="42.687,43.545 68.926,90.905     68.946,90.936   "
           id="polyline32" />
        <polyline
           style="fill:#fff7f7;stroke:#000000;stroke-width:0.25;stroke-miterlimit:10;fill-opacity:1"
           stroke-miterlimit="10"
           points="48.606,23.786 48.616,23.806     80.606,81.226 80.696,81.386   "
           id="polyline34" />
        <polyline
           style="fill:#fff7f7;stroke:#000000;stroke-width:0.25;stroke-miterlimit:10;fill-opacity:1"
           stroke-miterlimit="10"
           points="46.667,25.976 77.767,82.336     77.866,82.516   "
           id="polyline36" />
        <polyline
           style="fill:#fff7f7;stroke:#000000;stroke-width:0.25;stroke-miterlimit:10;fill-opacity:1"
           stroke-miterlimit="10"
           points="44.446,35.766 72.926,87.756     72.937,87.756 72.966,87.815   "
           id="polyline38" />
        <polyline
           style="fill:#fff7f7;stroke:#000000;stroke-width:0.25;stroke-miterlimit:10;fill-opacity:1"
           stroke-miterlimit="10"
           points="42.236,45.936 67.586,91.815     67.626,91.896   "
           id="polyline40" />
        <polyline
           style="fill:#fff7f7;stroke:#000000;stroke-width:0.25;stroke-miterlimit:10;fill-opacity:1"
           stroke-miterlimit="10"
           points="42.687,26.425 30.156,81.346     30.146,81.386   "
           id="polyline42" />
        <path
           style="fill:#fff7f7;stroke:#000000;stroke-width:0.25;stroke-miterlimit:10;fill-opacity:1"
           inkscape:connector-curvature="0"
           stroke-miterlimit="10"
           d="m 48.616,23.806 c 0.17,-0.01 0.34,-0.01 0.51,-0.01 20.54,0 37.19,16.78 37.19,37.48 0,7.33 -2.09,14.17 -5.71,19.95 -6.58,10.53 -18.22,17.52 -31.48,17.52 -20.54,0 -37.2,-16.779 -37.2,-37.47 0,-20.53 16.381,-37.2 36.69,-37.47 z"
           id="path44" />
        <path
           style="fill:#fff7f7;stroke:#000000;stroke-width:0.25;stroke-miterlimit:10;fill-opacity:1"
           inkscape:connector-curvature="0"
           stroke-miterlimit="10"
           d="m 88.066,61.416 c 0,-21.74 -17.43,-39.37 -38.93,-39.37 -21.51,0 -38.95,17.63 -38.95,39.37 0,21.74 17.44,39.36 38.95,39.36 21.5,-10e-4 38.93,-17.621 38.93,-39.36 z"
           id="path46" />
        <path
           style="fill:#fff7f7;stroke:#000000;stroke-width:0.25;stroke-miterlimit:10;fill-opacity:1"
           inkscape:connector-curvature="0"
           stroke-miterlimit="10"
           d="m 32.626,87.245 c -0.52,1.471 -1.63,2.91 -3.18,4.07"
           id="path48" />
        <path
           style="fill:#fff7f7;stroke:#000000;stroke-width:0.25;stroke-miterlimit:10;fill-opacity:1"
           inkscape:connector-curvature="0"
           stroke-miterlimit="10"
           d="m 20.646,82.855 c 0.52,-0.36 1.09,-0.69 1.7,-0.979 2.8,-1.33 5.73,-1.45 7.81,-0.53 h 0.01"
           id="path50" />
      </g>
      <g
         id="g14">
        <path
           inkscape:connector-curvature="0"
           d="m 86.316,61.275 c 0,7.33 -2.09,14.17 -5.71,19.95 l -31.99,-57.42 c 0.17,-0.01 0.34,-0.01 0.51,-0.01 20.541,0 37.19,16.781 37.19,37.48 z"
           id="path2" />
        <path
           inkscape:connector-curvature="0"
           d="m 46.667,25.976 31.1,56.36 c -0.82,1.21 -1.95,2.6 -3.37,4.02 l -0.21,-0.17 -29.17,-52.92 z"
           id="path4" />
        <path
           inkscape:connector-curvature="0"
           d="m 48.616,23.806 c -20.31,0.27 -36.69,16.94 -36.69,37.47 0,20.69 16.66,37.47 37.2,37.47 13.26,0 24.9,-6.989 31.48,-17.52 3.62,-5.78 5.71,-12.62 5.71,-19.95 0,-20.7 -16.65,-37.48 -37.19,-37.48 -0.169,-10e-4 -0.339,-10e-4 -0.51,0.01 z m 0.52,-1.761 c 21.5,0 38.93,17.63 38.93,39.37 0,21.74 -17.43,39.36 -38.93,39.36 -21.51,0 -38.95,-17.62 -38.95,-39.36 10e-4,-21.74 17.44,-39.37 38.95,-39.37 z"
           id="path6" />
        <path
           inkscape:connector-curvature="0"
           d="m 44.446,35.766 28.48,51.99 -0.01,0.01 c -1.16,1.04 -2.47,2.09 -3.91,3.1 l -0.08,0.04 -26.24,-47.36 h -0.01 z"
           id="path8" />
        <path
           inkscape:connector-curvature="0"
           d="m 32.736,87.275 9.41,-41.36 0.09,0.02 25.35,45.88 c -0.9,0.57 -1.85,1.13 -2.85,1.66 -1.98,1.05 -5.31,2.37 -7.93,2.939 -2.34,0.5 -6.04,0.9 -8.24,0.9 -7.06,0 -13.63,-2.52 -19.11,-5.979 l -0.01,-0.021 c 1.55,-1.16 2.66,-2.6 3.18,-4.07 z"
           id="path10" />
        <path
           inkscape:connector-curvature="0"
           d="m 42.687,26.425 -12.53,54.92 c -2.08,-0.92 -5.01,-0.8 -7.81,0.53 -0.61,0.289 -1.18,0.619 -1.7,0.979 -4.42,-6 -7.04,-13.44 -7.04,-21.51 -10e-4,-17.799 12.419,-32.098 29.08,-34.919 z"
           id="path12" />
      </g>
    </g>
  </g>
</svg>
