<?xml version="1.0" encoding="UTF-8" standalone="no"?>
<!-- Generator: Adobe Illustrator 16.0.0, SVG Export Plug-In . SVG Version: 6.00 Build 0)  -->

<svg
   xmlns:dc="http://purl.org/dc/elements/1.1/"
   xmlns:cc="http://creativecommons.org/ns#"
   xmlns:rdf="http://www.w3.org/1999/02/22-rdf-syntax-ns#"
   xmlns:svg="http://www.w3.org/2000/svg"
   xmlns="http://www.w3.org/2000/svg"
   xmlns:sodipodi="http://sodipodi.sourceforge.net/DTD/sodipodi-0.dtd"
   xmlns:inkscape="http://www.inkscape.org/namespaces/inkscape"
   version="1.1"
   id="Layer_1"
   x="0px"
   y="0px"
   width="255.12px"
   height="141.73px"
   viewBox="0 0 255.12 141.73"
   enable-background="new 0 0 255.12 141.73"
   xml:space="preserve"
   sodipodi:docname="name.svg"
   inkscape:version="0.92.2 (5c3e80d, 2017-08-06)"><metadata
     id="metadata452"><rdf:RDF><cc:Work
         rdf:about=""><dc:format>image/svg+xml</dc:format><dc:type
           rdf:resource="http://purl.org/dc/dcmitype/StillImage" /></cc:Work></rdf:RDF></metadata><defs
     id="defs450" /><sodipodi:namedview
     pagecolor="#ffffff"
     bordercolor="#666666"
     borderopacity="1"
     objecttolerance="10"
     gridtolerance="10"
     guidetolerance="10"
     inkscape:pageopacity="0"
     inkscape:pageshadow="2"
     inkscape:window-width="1920"
     inkscape:window-height="1017"
     id="namedview448"
     showgrid="false"
     inkscape:zoom="4.4528066"
     inkscape:cx="87.74285"
     inkscape:cy="29.373485"
     inkscape:window-x="-8"
     inkscape:window-y="-8"
     inkscape:window-maximized="1"
     inkscape:current-layer="Layer_1" /><g
     id="XMLID_2_"><g
       id="g14"><path
         d="M86.316,61.275c0,7.33-2.09,14.17-5.71,19.95l-31.99-57.42c0.17-0.01,0.34-0.01,0.51-0.01    C69.667,23.795,86.316,40.576,86.316,61.275z"
         id="path2" /><path
         d="M46.667,25.976l31.1,56.36c-0.82,1.21-1.95,2.6-3.37,4.02l-0.21-0.17l-29.17-52.92L46.667,25.976z"
         id="path4" /><path
         d="M48.616,23.806c-20.31,0.27-36.69,16.94-36.69,37.47c0,20.69,16.66,37.47,37.2,37.47c13.26,0,24.9-6.989,31.48-17.52    c3.62-5.78,5.71-12.62,5.71-19.95c0-20.7-16.65-37.48-37.19-37.48C48.957,23.795,48.787,23.795,48.616,23.806z M49.136,22.045    c21.5,0,38.93,17.63,38.93,39.37c0,21.74-17.43,39.36-38.93,39.36c-21.51,0-38.95-17.62-38.95-39.36    C10.187,39.675,27.626,22.045,49.136,22.045z"
         id="path6" /><path
         d="M44.446,35.766l28.48,51.99l-0.01,0.01c-1.16,1.04-2.47,2.09-3.91,3.1l-0.08,0.04l-26.24-47.36h-0.01L44.446,35.766z"
         id="path8" /><path
         d="M32.736,87.275l9.41-41.36l0.09,0.02l25.35,45.88c-0.9,0.57-1.85,1.13-2.85,1.66c-1.98,1.05-5.31,2.37-7.93,2.939    c-2.34,0.5-6.04,0.9-8.24,0.9c-7.06,0-13.63-2.52-19.11-5.979l-0.01-0.021c1.55-1.16,2.66-2.6,3.18-4.07L32.736,87.275z"
         id="path10" /><path
         d="M42.687,26.425l-12.53,54.92c-2.08-0.92-5.01-0.8-7.81,0.53c-0.61,0.289-1.18,0.619-1.7,0.979    c-4.42-6-7.04-13.44-7.04-21.51C13.606,43.545,26.026,29.246,42.687,26.425z"
         id="path12" /></g><g
       id="g52"><path
         fill="none"
         stroke="#000000"
         stroke-width="0.5"
         stroke-miterlimit="10"
         d="M20.646,82.865v-0.01    c-4.42-6-7.04-13.44-7.04-21.51c0-17.8,12.42-32.1,29.08-34.92"
         id="path16" /><path
         fill="none"
         stroke="#000000"
         stroke-width="0.5"
         stroke-miterlimit="10"
         d="M67.586,91.815c-0.9,0.57-1.85,1.13-2.85,1.66    c-1.98,1.05-5.31,2.37-7.93,2.939c-2.34,0.5-6.04,0.9-8.24,0.9c-7.06,0-13.63-2.52-19.11-5.979"
         id="path18" /><path
         fill="none"
         stroke="#000000"
         stroke-width="0.5"
         stroke-miterlimit="10"
         d="M72.917,87.766c-1.16,1.04-2.47,2.09-3.91,3.1"
         id="path20" /><path
         fill="none"
         stroke="#000000"
         stroke-width="0.5"
         stroke-miterlimit="10"
         d="M77.866,82.186c-0.03,0.05-0.07,0.1-0.1,0.15    c-0.82,1.21-1.95,2.6-3.37,4.02"
         id="path22" /><polyline
         fill="none"
         stroke="#000000"
         stroke-width="0.25"
         stroke-miterlimit="10"
         points="42.146,45.905 42.146,45.916     32.736,87.275 32.736,87.285   "
         id="polyline24" /><line
         fill="none"
         stroke="#000000"
         stroke-width="0.25"
         stroke-miterlimit="10"
         x1="44.446"
         y1="35.766"
         x2="42.676"
         y2="43.545"
         id="line26" /><polyline
         fill="none"
         stroke="#000000"
         stroke-width="0.25"
         stroke-miterlimit="10"
         points="46.676,25.936 46.667,25.976     45.017,33.266   "
         id="polyline28" /><line
         fill="none"
         stroke="#000000"
         stroke-width="0.25"
         stroke-miterlimit="10"
         x1="45.017"
         y1="33.266"
         x2="74.187"
         y2="86.186"
         id="line30" /><polyline
         fill="none"
         stroke="#000000"
         stroke-width="0.25"
         stroke-miterlimit="10"
         points="42.687,43.545 68.926,90.905     68.946,90.936   "
         id="polyline32" /><polyline
         fill="none"
         stroke="#000000"
         stroke-width="0.25"
         stroke-miterlimit="10"
         points="48.606,23.786 48.616,23.806     80.606,81.226 80.696,81.386   "
         id="polyline34" /><polyline
         fill="none"
         stroke="#000000"
         stroke-width="0.25"
         stroke-miterlimit="10"
         points="46.667,25.976 77.767,82.336     77.866,82.516   "
         id="polyline36" /><polyline
         fill="none"
         stroke="#000000"
         stroke-width="0.25"
         stroke-miterlimit="10"
         points="44.446,35.766 72.926,87.756     72.937,87.756 72.966,87.815   "
         id="polyline38" /><polyline
         fill="none"
         stroke="#000000"
         stroke-width="0.25"
         stroke-miterlimit="10"
         points="42.236,45.936 67.586,91.815     67.626,91.896   "
         id="polyline40" /><polyline
         fill="none"
         stroke="#000000"
         stroke-width="0.25"
         stroke-miterlimit="10"
         points="42.687,26.425 30.156,81.346     30.146,81.386   "
         id="polyline42" /><path
         fill="none"
         stroke="#000000"
         stroke-width="0.25"
         stroke-miterlimit="10"
         d="M48.616,23.806c0.17-0.01,0.34-0.01,0.51-0.01    c20.54,0,37.19,16.78,37.19,37.48c0,7.33-2.09,14.17-5.71,19.95c-6.58,10.53-18.22,17.52-31.48,17.52    c-20.54,0-37.2-16.779-37.2-37.47C11.926,40.746,28.307,24.076,48.616,23.806z"
         id="path44" /><path
         fill="none"
         stroke="#000000"
         stroke-width="0.25"
         stroke-miterlimit="10"
         d="M88.066,61.416    c0-21.74-17.43-39.37-38.93-39.37c-21.51,0-38.95,17.63-38.95,39.37c0,21.74,17.44,39.36,38.95,39.36    C70.636,100.775,88.066,83.155,88.066,61.416z"
         id="path46" /><path
         fill="none"
         stroke="#000000"
         stroke-width="0.25"
         stroke-miterlimit="10"
         d="M32.626,87.245    c-0.52,1.471-1.63,2.91-3.18,4.07"
         id="path48" /><path
         fill="none"
         stroke="#000000"
         stroke-width="0.25"
         stroke-miterlimit="10"
         d="M20.646,82.855c0.52-0.36,1.09-0.69,1.7-0.979    c2.8-1.33,5.73-1.45,7.81-0.53h0.01"
         id="path50" /></g></g><g
     id="XMLID_1_"><g
       id="g225"><path
         d="M95.229,76.157c1.85,1.37,1.84,3.859,1.44,5.92c-0.95,4.89-5.95,7.72-10.21,9.439c-2.32,6.521-4.87,12.971-7.29,19.45    c0-0.36-0.5-0.45-0.78-0.2c1.56-4.04,3.15-8.06,4.62-12.12c0.88-2.449,1.75-4.899,2.6-7.359c0.01-0.12,0.04-0.24,0.12-0.34    c0.6-1.73,1.2-3.46,1.78-5.2c0.86-2.55,1.27-5.7,2.99-7.851C91.5,76.646,93.56,74.917,95.229,76.157z M95.939,80.816    c0.05-1.35-0.54-5.76-3.34-3.729c-1.54,1.11-2.32,2.729-2.87,4.5c-0.74,2.38-1.46,4.75-2.27,7.11c-0.19,0.569-0.4,1.13-0.6,1.699    C90.959,88.646,95.75,85.697,95.939,80.816z"
         id="path55" /><path
         d="M92.6,77.087c2.8-2.03,3.39,2.38,3.34,3.729c-0.19,4.881-4.98,7.83-9.08,9.58c0.2-0.569,0.41-1.13,0.6-1.699    c0.81-2.36,1.53-4.73,2.27-7.11C90.279,79.816,91.06,78.197,92.6,77.087z"
         id="path57" /><path
         d="M89.729,104.557c0.32-0.52,1.13-0.149,0.78,0.4c-2.08,3.37-4.76,6.479-8.12,8.63c-0.75,0.49-1.48,0.95-2.17,1.42    c0.31-0.27,0.61-0.58,0.9-0.89c0.32-0.34,0.06-0.771-0.27-0.771c0.48-0.2,0.98-0.39,1.48-0.62c1.4-0.63,2.73-1.5,3.85-2.54    c0.4-0.37,0.01-0.87-0.4-0.739C87.229,108.047,88.549,106.467,89.729,104.557z"
         id="path59" /><path
         d="M85.779,109.447c0.41-0.131,0.8,0.369,0.4,0.739c-1.12,1.04-2.45,1.91-3.85,2.54c-0.5,0.23-1,0.42-1.48,0.62    c-0.01-0.01-0.02,0-0.02,0c-0.08,0-0.17,0.03-0.26,0.11c-0.01-0.01-0.01,0-0.01,0c-0.5,0.2-0.99,0.41-1.44,0.689    c-0.01,0-0.01,0-0.01,0c-0.02-0.06-0.07-0.109-0.12-0.14l-0.01-0.01c1.38-0.78,2.94-1.24,4.15-2.37c0.09-0.08,0.19-0.12,0.29-0.13    C84.24,110.847,85.029,110.167,85.779,109.447z"
         id="path61" /><path
         d="M85.569,109.566c0.07-0.06,0.14-0.1,0.21-0.119c-0.75,0.72-1.54,1.399-2.36,2.05c-0.1,0.01-0.2,0.05-0.29,0.13    c-1.21,1.13-2.77,1.59-4.15,2.37c-0.03-0.11-0.1-0.21-0.2-0.25c-0.08-0.13-0.23-0.21-0.38-0.21c0.74-0.521,1.56-0.88,2.47-1.19    C82.589,111.757,84.24,110.807,85.569,109.566z"
         id="path63" /><path
         d="M80.85,113.347c0.33,0,0.59,0.431,0.27,0.771c-0.29,0.31-0.59,0.62-0.9,0.89c-0.64,0.45-1.24,0.89-1.8,1.37    c0.03-0.04,0.06-0.07,0.09-0.11c0-0.01,0.01-0.02,0.01-0.02c0.18-0.141,0.36-0.29,0.54-0.44c0.35-0.29,0.13-0.689-0.21-0.729    c0.59-0.48,1.13-1.011,1.66-1.57c0.02-0.02,0.03-0.04,0.05-0.05c0,0,0-0.01,0.01,0c0.08-0.04,0.17-0.08,0.26-0.11    C80.83,113.347,80.839,113.337,80.85,113.347z"
         id="path65" /><path
         d="M80.83,113.347c-0.09,0.03-0.18,0.07-0.26,0.11C80.66,113.377,80.75,113.347,80.83,113.347z"
         id="path67" /><path
         d="M80.56,113.457c-0.02,0.01-0.03,0.03-0.05,0.05c-0.53,0.56-1.07,1.09-1.66,1.57c-0.07-0.021-0.15-0.011-0.23,0.02    c0.11-0.1,0.22-0.189,0.33-0.27c0.25-0.181,0.27-0.49,0.17-0.681C79.569,113.867,80.06,113.657,80.56,113.457z"
         id="path69" /><path
         d="M79.169,110.967v0.01c-0.12,0.32-0.24,0.63-0.36,0.95c0,0.01-0.01,0.03-0.01,0.04c-0.3,0.67-0.63,1.33-0.95,1.99    c-0.27,0.229-0.53,0.5-0.78,0.8c-0.06,0.07-0.1,0.15-0.11,0.23c-0.1,0.109-0.2,0.22-0.29,0.34c0.56-1.521,1.14-3.04,1.72-4.561    C78.669,110.517,79.169,110.606,79.169,110.967z"
         id="path71" /><path
         d="M78.81,111.927c0.12-0.32,0.24-0.63,0.36-0.95c0,0.051-0.01,0.101-0.04,0.17C79.029,111.407,78.919,111.677,78.81,111.927    z"
         id="path73" /><path
         d="M79.12,114.146c0.1,0.19,0.08,0.5-0.17,0.681c-0.11,0.08-0.22,0.17-0.33,0.27c0,0,0,0-0.01,0    c-0.05,0.021-0.09,0.04-0.14,0.08c-0.14-0.02-0.29,0.03-0.4,0.14c-0.12,0.131-0.23,0.261-0.33,0.4l-0.01,0.01    c-0.13,0.011-0.24,0.08-0.31,0.17c-0.01,0.011-0.01,0.011-0.01,0.021c-0.01-0.01-0.02,0-0.02,0c0.14-0.24,0.32-0.44,0.5-0.64    c0.06-0.07,0.12-0.12,0.18-0.181c0.22-0.18,0.45-0.359,0.7-0.52c0.15-0.09,0.22-0.221,0.23-0.36c0,0,0.01,0,0.01-0.01    c0.03-0.021,0.06-0.04,0.1-0.061C79.109,114.146,79.109,114.146,79.12,114.146z"
         id="path75" /><path
         d="M78.85,115.077c0.34,0.04,0.56,0.439,0.21,0.729c-0.18,0.15-0.36,0.3-0.54,0.44c0.13-0.17,0.22-0.34,0.3-0.53    c0.09-0.22,0-0.4-0.16-0.479C78.729,115.187,78.79,115.137,78.85,115.077z"
         id="path77" /><path
         d="M79.109,114.146c-0.04,0.021-0.07,0.04-0.1,0.061c0.01-0.07,0-0.13-0.02-0.2C79.04,114.037,79.089,114.087,79.109,114.146    z"
         id="path79" /><path
         d="M78.419,116.377c0.56-0.48,1.16-0.92,1.8-1.37c-0.58,0.57-1.18,1.08-1.84,1.51    C78.399,116.467,78.41,116.427,78.419,116.377z"
         id="path81" /><path
         d="M79.01,114.207c0,0.01-0.01,0.01-0.01,0.01c-0.15,0.09-0.3,0.19-0.44,0.3c0.08-0.1,0.15-0.2,0.21-0.31    c0.02-0.04,0.04-0.08,0.05-0.12v-0.01c0.05-0.021,0.1-0.05,0.15-0.08c0-0.01,0.01,0,0.01,0l0.01,0.01    C79.01,114.077,79.02,114.137,79.01,114.207z"
         id="path83" /><path
         d="M78.979,113.997c0,0-0.01-0.01-0.01,0c-0.04-0.03-0.08-0.05-0.13-0.04v-0.01c0-0.08-0.02-0.15-0.06-0.2    C78.879,113.787,78.95,113.887,78.979,113.997z"
         id="path85" /><path
         d="M78.97,113.997c-0.05,0.03-0.1,0.06-0.15,0.08c0.01-0.04,0.02-0.08,0.02-0.12C78.89,113.947,78.93,113.967,78.97,113.997z    "
         id="path87" /><path
         d="M79,114.217c-0.01,0.14-0.08,0.271-0.23,0.36c-0.25,0.16-0.48,0.34-0.7,0.52c0.17-0.189,0.35-0.38,0.49-0.58    C78.7,114.407,78.85,114.307,79,114.217z"
         id="path89" /><path
         d="M78.66,115.237c0.16,0.079,0.25,0.26,0.16,0.479c-0.08,0.19-0.17,0.36-0.3,0.53c0,0-0.01,0.01-0.01,0.02    c-0.04,0.011-0.07,0.04-0.1,0.061c0-0.15-0.09-0.28-0.23-0.351c-0.04-0.1-0.11-0.18-0.21-0.229    C78.209,115.587,78.439,115.417,78.66,115.237z"
         id="path91" /><path
         d="M78.85,115.077c-0.06,0.06-0.12,0.109-0.19,0.16c-0.04-0.03-0.09-0.051-0.14-0.051c0.03-0.04,0.06-0.06,0.09-0.09    c0.01,0,0.01,0,0.01,0C78.7,115.066,78.779,115.057,78.85,115.077z"
         id="path93" /><path
         d="M78.839,113.947v0.01c0,0.04-0.01,0.08-0.02,0.12v0.01c-0.38,0.22-0.75,0.46-1.08,0.76c0.03-0.09,0.06-0.17,0.09-0.26    c0.02,0,0.04,0,0.06,0c0.22-0.19,0.43-0.37,0.66-0.54C78.66,113.967,78.76,113.937,78.839,113.947z"
         id="path95" /><path
         d="M78.839,113.947c-0.08-0.011-0.18,0.02-0.29,0.1c-0.23,0.17-0.44,0.35-0.66,0.54c-0.02,0-0.04,0-0.06,0    c0.07-0.19,0.14-0.37,0.21-0.56v-0.011c0.1-0.08,0.21-0.149,0.32-0.22c0.16-0.1,0.3-0.11,0.42-0.05    C78.819,113.797,78.839,113.867,78.839,113.947z"
         id="path97" /><path
         d="M78.819,114.087c-0.01,0.04-0.03,0.08-0.05,0.12c-0.06,0.109-0.13,0.21-0.21,0.31c-0.31,0.24-0.6,0.521-0.88,0.851    c-0.17,0.21-0.38,0.22-0.53,0.109c0.1-0.239,0.21-0.489,0.32-0.729c0.1-0.11,0.23-0.15,0.36-0.16c-0.03,0.09-0.06,0.17-0.09,0.26    C78.069,114.547,78.439,114.307,78.819,114.087z"
         id="path99" /><path
         d="M78.799,111.967c-0.2,0.54-0.4,1.08-0.6,1.62c-0.09,0.04-0.16,0.11-0.22,0.21c-0.02,0.03-0.04,0.07-0.06,0.1    c-0.02,0.021-0.04,0.04-0.07,0.061C78.169,113.297,78.5,112.637,78.799,111.967z"
         id="path101" /><path
         d="M78.779,113.747c-0.12-0.061-0.26-0.05-0.42,0.05c-0.11,0.07-0.22,0.14-0.32,0.22c0.04-0.1,0.07-0.189,0.11-0.29v-0.01    c0.08-0.07,0.16-0.13,0.25-0.18C78.549,113.537,78.7,113.617,78.779,113.747z"
         id="path103" /><path
         d="M78.47,115.177c0.05-0.04,0.09-0.06,0.14-0.08c-0.03,0.03-0.06,0.05-0.09,0.09h-0.01    C78.5,115.177,78.479,115.167,78.47,115.177z"
         id="path105" /><path
         d="M78.52,115.187c0.05,0,0.1,0.021,0.14,0.051c-0.22,0.18-0.45,0.35-0.69,0.51h-0.01c-0.01,0-0.02-0.01-0.04-0.01    c0.19-0.19,0.39-0.381,0.59-0.551H78.52z"
         id="path107" /><path
         d="M78.51,116.267c-0.03,0.04-0.06,0.07-0.09,0.11c0-0.021,0-0.03-0.01-0.05C78.439,116.307,78.47,116.277,78.51,116.267z"
         id="path109" /><path
         d="M78.47,115.177c0.01-0.01,0.03,0,0.04,0.01c-0.2,0.17-0.4,0.36-0.59,0.551c-0.04-0.011-0.09-0.021-0.14-0.021    c-0.01,0-0.02,0-0.03,0c0.25-0.15,0.46-0.33,0.69-0.52C78.45,115.187,78.459,115.177,78.47,115.177z"
         id="path111" /><path
         d="M78.47,115.177c-0.01,0-0.02,0.01-0.03,0.021c-0.23,0.189-0.44,0.369-0.69,0.52h-0.01c0.1-0.14,0.21-0.27,0.33-0.4    C78.18,115.207,78.33,115.157,78.47,115.177z"
         id="path113" /><path
         d="M78.41,116.327c0.01,0.02,0.01,0.029,0.01,0.05c-0.07,0.05-0.15,0.11-0.22,0.189c0,0-0.01-0.01-0.01,0.011    c-0.05,0.02-0.1,0.029-0.15,0.029c-0.05,0.011-0.08,0.021-0.13,0.021C78.089,116.547,78.25,116.447,78.41,116.327z"
         id="path115" /><path
         d="M78.419,116.377c-0.02,0.02-0.03,0.04-0.05,0.06c-0.06,0.061-0.12,0.101-0.17,0.13    C78.27,116.487,78.35,116.427,78.419,116.377z"
         id="path117" /><path
         d="M78.37,116.437c0.02-0.02,0.03-0.04,0.05-0.06c-0.01,0.05-0.02,0.09-0.04,0.14c-0.12,0.09-0.24,0.17-0.36,0.25    c-0.03,0.021-0.06,0.04-0.09,0.04c0.09-0.09,0.17-0.17,0.26-0.229c0-0.021,0.01-0.011,0.01-0.011    C78.25,116.537,78.31,116.497,78.37,116.437z"
         id="path119" /><path
         d="M78.2,113.587c0.06-0.04,0.13-0.05,0.2-0.05c-0.09,0.05-0.17,0.109-0.25,0.18C78.169,113.677,78.18,113.627,78.2,113.587z    "
         id="path121" /><path
         d="M78.02,116.767c0.12-0.08,0.24-0.16,0.36-0.25c-0.03,0.061-0.07,0.12-0.13,0.17c-2.05,1.801-1.69,5.17-3.63,7    c-0.42,0.391-0.97-0.08-0.71-0.5c-0.01,0.051-0.02,0.101-0.02,0.15c-0.05,0.59,0.76,0.52,0.91,0.06c0-0.01,0-0.01,0.01-0.02    c0.03-0.03,0.06-0.07,0.08-0.11c0.3-0.6,0.45-1.239,0.58-1.89c0.31-0.97,0.64-1.93,0.97-2.9c0.43-0.609,0.93-1.16,1.49-1.67    C77.959,116.807,77.99,116.787,78.02,116.767z"
         id="path123" /><path
         d="M78.24,110.977c0.03-0.09,0.08-0.16,0.15-0.21c-0.58,1.521-1.16,3.04-1.72,4.561c-0.33,0.399-0.62,0.84-0.88,1.3    c0-0.03,0.01-0.061,0.02-0.09C76.41,114.597,77.529,112.877,78.24,110.977z"
         id="path125" /><path
         d="M78.18,115.977c0.14,0.07,0.23,0.2,0.23,0.351c-0.16,0.12-0.32,0.22-0.5,0.3h-0.01c-0.01,0-0.01,0-0.02,0    C78.14,116.527,78.26,116.207,78.18,115.977z"
         id="path127" /><path
         d="M78.56,114.517c-0.14,0.2-0.32,0.391-0.49,0.58c-0.06,0.061-0.12,0.11-0.18,0.181c-0.31,0.289-0.59,0.619-0.83,0.97h-0.01    c-0.06,0.03-0.13,0.04-0.2,0.02c0.09-0.27,0.19-0.529,0.3-0.79c0.15,0.11,0.36,0.101,0.53-0.109    C77.959,115.037,78.25,114.757,78.56,114.517z"
         id="path129" /><path
         d="M78.2,113.587c-0.02,0.04-0.03,0.09-0.05,0.13v0.01c-0.08,0.051-0.15,0.11-0.23,0.17c0.02-0.029,0.04-0.069,0.06-0.1    C78.04,113.697,78.109,113.627,78.2,113.587z"
         id="path131" /><path
         d="M78.18,115.977c0.08,0.23-0.04,0.551-0.3,0.65c-0.23-0.01-0.43-0.17-0.42-0.39c0.05-0.07,0.11-0.12,0.17-0.171    C77.819,115.896,78.029,115.896,78.18,115.977z"
         id="path133" /><path
         d="M78.189,116.577c-0.09,0.06-0.17,0.14-0.26,0.229c-0.24,0.101-0.42,0-0.5-0.17c0.12,0.07,0.28,0.09,0.46,0l0.01-0.01h0.01    c0.05,0,0.08-0.01,0.13-0.021C78.089,116.606,78.14,116.597,78.189,116.577z"
         id="path135" /><path
         d="M78.149,113.727c-0.04,0.101-0.07,0.19-0.11,0.29v0.011c-0.12,0.079-0.24,0.17-0.35,0.26c0.03-0.061,0.05-0.11,0.08-0.16    c0.05-0.07,0.1-0.15,0.15-0.23C78,113.837,78.069,113.777,78.149,113.727z"
         id="path137" /><path
         d="M78.18,115.977c-0.15-0.08-0.36-0.08-0.55,0.09c-0.06,0.051-0.12,0.101-0.17,0.171c0-0.011,0-0.011,0.01-0.021    c0.01-0.02,0.02-0.03,0.03-0.05c0.1-0.11,0.2-0.21,0.3-0.311c0.01-0.02,0.03-0.029,0.05-0.04c0.04-0.01,0.07-0.029,0.11-0.069    h0.01C78.069,115.797,78.14,115.877,78.18,115.977z"
         id="path139" /><path
         d="M78.04,114.027c-0.07,0.189-0.14,0.369-0.21,0.56c-0.13,0.01-0.26,0.05-0.36,0.16c0.07-0.15,0.15-0.311,0.22-0.46    C77.799,114.197,77.919,114.106,78.04,114.027z"
         id="path141" /><path
         d="M77.959,115.747c-0.04,0.04-0.07,0.06-0.11,0.069c0.02-0.029,0.04-0.05,0.07-0.079    C77.939,115.737,77.95,115.747,77.959,115.747z"
         id="path143" /><path
         d="M77.779,115.717c0.05,0,0.1,0.01,0.14,0.021c-0.03,0.029-0.05,0.05-0.07,0.079c-0.02,0.011-0.04,0.021-0.05,0.04    c-0.06,0.051-0.12,0.091-0.19,0.131c-0.04,0.029-0.07,0.05-0.1,0.079c0.01-0.02,0.02-0.05,0.04-0.079    c0.06-0.091,0.11-0.171,0.17-0.25c0.01,0,0.01-0.011,0.01-0.011l0.01-0.01h0.01C77.76,115.717,77.77,115.717,77.779,115.717z"
         id="path145" /><path
         d="M77.899,116.627l-0.01,0.01c-0.18,0.09-0.34,0.07-0.46,0c-0.03-0.04-0.04-0.08-0.04-0.13c0.06,0.09,0.17,0.15,0.33,0.15    c0.06,0,0.11-0.011,0.16-0.03C77.89,116.627,77.89,116.627,77.899,116.627z"
         id="path147" /><path
         d="M77.43,116.637c0.08,0.17,0.26,0.271,0.5,0.17c-0.56,0.51-1.06,1.061-1.49,1.67c-0.33,0.971-0.66,1.931-0.97,2.9    c0.1-0.58,0.18-1.18,0.33-1.771c0.26-1.029,0.85-2.13,1.49-3.119C77.319,116.547,77.37,116.597,77.43,116.637z"
         id="path149" /><path
         d="M77.85,113.957c0.03-0.021,0.05-0.04,0.07-0.061c-0.05,0.08-0.1,0.16-0.15,0.23    C77.799,114.066,77.83,114.007,77.85,113.957z"
         id="path151" /><path
         d="M77.85,113.957c-0.02,0.05-0.05,0.109-0.08,0.17c-0.1,0.13-0.2,0.25-0.31,0.36c-0.02,0.02-0.05,0.04-0.07,0.069    c-0.15,0.13-0.29,0.28-0.43,0.431c0.01-0.08,0.05-0.16,0.11-0.23C77.319,114.457,77.58,114.187,77.85,113.957z"
         id="path153" /><path
         d="M77.879,116.627c-0.05,0.02-0.1,0.03-0.16,0.03c-0.16,0-0.27-0.061-0.33-0.15c-0.01-0.01-0.02-0.01-0.01-0.02    c-0.02-0.04-0.02-0.08-0.01-0.131c0.01-0.01,0.01-0.02,0.01-0.02c0.02-0.021,0.03-0.04,0.04-0.06c0.02-0.011,0.03-0.03,0.04-0.04    C77.45,116.457,77.649,116.617,77.879,116.627z"
         id="path155" /><path
         d="M77.799,115.856c-0.1,0.101-0.2,0.2-0.3,0.311c-0.01,0.02-0.02,0.03-0.03,0.05c-0.01-0.03,0-0.06,0.01-0.1    c0.01-0.011,0.01-0.03,0.03-0.051c0.03-0.029,0.06-0.05,0.1-0.079C77.68,115.947,77.74,115.907,77.799,115.856z"
         id="path157" /><path
         d="M77.77,114.127c-0.03,0.05-0.05,0.1-0.08,0.16c-0.08,0.06-0.15,0.13-0.23,0.2    C77.569,114.377,77.669,114.257,77.77,114.127z"
         id="path159" /><path
         d="M77.74,115.717l-0.01,0.01L77.74,115.717z"
         id="path161" /><path
         d="M77.729,115.727c0,0,0,0.011-0.01,0.011c-0.07,0.04-0.15,0.079-0.23,0.119c-0.03,0.011-0.05,0.021-0.07,0.04    C77.49,115.807,77.6,115.737,77.729,115.727z"
         id="path163" /><path
         d="M77.72,115.737c-0.06,0.079-0.11,0.159-0.17,0.25c-0.02,0.029-0.03,0.06-0.04,0.079c-0.02,0.021-0.02,0.04-0.03,0.051    c-0.06,0.06-0.09,0.13-0.1,0.199c-0.02,0.011-0.04,0.03-0.06,0.061c-0.05-0.15-0.01-0.33,0.09-0.46c0-0.01,0-0.01,0.01-0.021    c0.02-0.02,0.04-0.029,0.07-0.04C77.569,115.816,77.649,115.777,77.72,115.737z"
         id="path165" /><path
         d="M77.459,114.487c0.08-0.07,0.15-0.141,0.23-0.2c-0.07,0.149-0.15,0.31-0.22,0.46c-0.02,0.01-0.04,0.03-0.05,0.05    c-0.14,0.19-0.27,0.38-0.39,0.57c-0.07-0.09-0.1-0.2-0.08-0.32c0.14-0.17,0.3-0.32,0.44-0.49    C77.41,114.527,77.439,114.507,77.459,114.487z"
         id="path167" /><path
         d="M77.89,115.277c-0.18,0.199-0.36,0.399-0.5,0.64c-0.01,0.01-0.01,0.01-0.01,0.02c-0.08,0.051-0.12,0.12-0.14,0.2    c-0.05,0.05-0.11,0.09-0.18,0.11C77.299,115.896,77.58,115.566,77.89,115.277z"
         id="path169" /><path
         d="M77.479,116.117c-0.01,0.04-0.02,0.069-0.01,0.1c-0.01,0.01-0.01,0.01-0.01,0.021c-0.01,0.01-0.02,0.029-0.04,0.04    c-0.01,0-0.03,0.01-0.04,0.039C77.39,116.247,77.419,116.177,77.479,116.117z"
         id="path171" /><path
         d="M77.419,114.797c0.01-0.02,0.03-0.04,0.05-0.05c-0.11,0.24-0.22,0.49-0.32,0.729c-0.05-0.02-0.09-0.06-0.12-0.109    C77.149,115.177,77.279,114.987,77.419,114.797z"
         id="path173" /><path
         d="M77.419,116.277c-0.01,0.02-0.02,0.039-0.04,0.06c0-0.01,0-0.021,0-0.021C77.39,116.287,77.41,116.277,77.419,116.277z"
         id="path175" /><path
         d="M77.39,115.917c0,0,0.01-0.01,0.02,0c-0.1,0.13-0.14,0.31-0.09,0.46c-0.02,0.02-0.04,0.04-0.06,0.06    c-0.05-0.09-0.06-0.199-0.02-0.3c0.04-0.04,0.07-0.08,0.09-0.12c0.01-0.029,0.03-0.05,0.05-0.08    C77.379,115.927,77.379,115.927,77.39,115.917z"
         id="path177" /><path
         d="M77.39,116.507c0,0.05,0.01,0.09,0.04,0.13c-0.06-0.04-0.11-0.09-0.14-0.149c0.02-0.03,0.03-0.051,0.04-0.07h0.01    c0,0.03,0.01,0.05,0.04,0.07C77.37,116.497,77.379,116.497,77.39,116.507z"
         id="path179" /><path
         d="M77.379,116.337c0,0,0,0.01-0.01,0.02c-0.01,0.021-0.02,0.04-0.03,0.061h-0.01c0-0.01-0.01-0.021-0.01-0.04    c0.02-0.03,0.04-0.05,0.06-0.061C77.379,116.316,77.379,116.327,77.379,116.337z"
         id="path181" /><path
         d="M77.37,116.356c-0.01,0.051-0.01,0.091,0.01,0.131c-0.03-0.021-0.04-0.04-0.04-0.07    C77.35,116.396,77.359,116.377,77.37,116.356z"
         id="path183" /><path
         d="M77.379,115.937c-0.02,0.03-0.04,0.051-0.05,0.08c-0.02,0.04-0.05,0.08-0.09,0.12    C77.26,116.057,77.299,115.987,77.379,115.937z"
         id="path185" /><path
         d="M77.33,116.417c-0.01,0.02-0.02,0.04-0.04,0.07c-0.01-0.011-0.02-0.03-0.03-0.051c0.02-0.02,0.04-0.04,0.06-0.06    C77.319,116.396,77.33,116.407,77.33,116.417z"
         id="path187" /><path
         d="M77.26,116.437c0.01,0.021,0.02,0.04,0.03,0.051c-0.64,0.989-1.23,2.09-1.49,3.119c-0.15,0.591-0.23,1.19-0.33,1.771    c-0.23,0.66-0.45,1.33-0.66,2c-0.23,0.22-0.73,0.22-0.77-0.16c-0.01-0.06-0.01-0.11-0.02-0.17c0.9-0.86,1.24-2.55,1.7-3.7    C76.14,118.287,76.51,117.267,77.26,116.437z"
         id="path189" /><path
         d="M77.24,116.137c-0.04,0.101-0.03,0.21,0.02,0.3c-0.75,0.83-1.12,1.851-1.54,2.91c-0.46,1.15-0.8,2.84-1.7,3.7    c-0.01-0.2-0.03-0.41-0.03-0.61c0.13-0.909,0.36-1.79,0.7-2.62c0.2,0.221,0.69,0.16,0.82-0.229c0.38-1.17,0.84-2.34,1.54-3.34    h0.01C77.129,116.227,77.189,116.187,77.24,116.137z"
         id="path191" /><path
         d="M77.39,114.557c-0.14,0.17-0.3,0.32-0.44,0.49c-0.01-0.02,0-0.04,0.01-0.06C77.1,114.837,77.24,114.687,77.39,114.557z"
         id="path193" /><path
         d="M77.029,115.367c0.03,0.05,0.07,0.09,0.12,0.109c-0.11,0.261-0.21,0.521-0.3,0.79c-0.01,0-0.01,0-0.01,0    c-0.15-0.029-0.28-0.12-0.33-0.27c0.12-0.15,0.25-0.29,0.38-0.431C76.93,115.497,76.979,115.437,77.029,115.367z"
         id="path195" /><path
         d="M77.029,115.367c-0.05,0.069-0.1,0.13-0.14,0.199c-0.13,0.141-0.26,0.28-0.38,0.431c-0.02-0.04-0.03-0.09-0.03-0.141    c0-0.02,0-0.04,0.01-0.06c0.03-0.08,0.06-0.16,0.09-0.24c0-0.01,0-0.01,0.01-0.02c0.1-0.181,0.23-0.34,0.36-0.49    C76.93,115.167,76.959,115.277,77.029,115.367z"
         id="path197" /><path
         d="M76.85,116.267c0.07,0.021,0.14,0.011,0.2-0.02c-0.7,1-1.16,2.17-1.54,3.34c-0.13,0.39-0.62,0.45-0.82,0.229    c0.29-0.75,0.66-1.47,1.11-2.13c0.08-0.21,0.15-0.42,0.23-0.63c0.23,0.07,0.56-0.029,0.66-0.34c0.05-0.15,0.1-0.3,0.15-0.45    C76.839,116.267,76.839,116.267,76.85,116.267z"
         id="path199" /><path
         d="M76.959,114.987c-0.01,0.02-0.02,0.04-0.01,0.06c-0.13,0.15-0.26,0.31-0.36,0.49c0.02-0.07,0.05-0.141,0.08-0.21    C76.76,115.207,76.859,115.097,76.959,114.987z"
         id="path201" /><path
         d="M76.839,116.267c-0.05,0.15-0.1,0.3-0.15,0.45c-0.1,0.311-0.43,0.41-0.66,0.34c0.1-0.29,0.21-0.58,0.32-0.87    c0.06-0.06,0.11-0.13,0.16-0.189C76.56,116.146,76.689,116.237,76.839,116.267z"
         id="path203" /><path
         d="M76.669,115.327c-0.03,0.069-0.06,0.14-0.08,0.21c-0.01,0.01-0.01,0.01-0.01,0.02c-0.01,0.021-0.02,0.03-0.03,0.05    c-0.04,0.07-0.06,0.131-0.06,0.19c-0.01,0.02-0.01,0.04-0.01,0.06c-0.05,0.11-0.09,0.221-0.13,0.33    c-0.18,0.23-0.36,0.471-0.52,0.71c-0.04-0.069-0.06-0.159-0.04-0.27C76.049,116.167,76.339,115.727,76.669,115.327z"
         id="path205" /><path
         d="M76.58,115.557c-0.03,0.08-0.06,0.16-0.09,0.24c0-0.06,0.02-0.12,0.06-0.19C76.56,115.587,76.569,115.577,76.58,115.557z"
         id="path207" /><path
         d="M76.51,115.997c-0.05,0.06-0.1,0.13-0.16,0.189c0.04-0.109,0.08-0.22,0.13-0.33    C76.479,115.907,76.49,115.957,76.51,115.997z"
         id="path209" /><path
         d="M76.35,116.187c-0.11,0.29-0.22,0.58-0.32,0.87c-0.08-0.04-0.15-0.09-0.2-0.16    C75.99,116.657,76.169,116.417,76.35,116.187z"
         id="path211" /><path
         d="M76.029,117.057c-0.08,0.21-0.15,0.42-0.23,0.63c-0.45,0.66-0.82,1.38-1.11,2.13c-0.09-0.079-0.13-0.22-0.07-0.399    c0.15-0.46,0.31-0.92,0.5-1.37c0.21-0.4,0.44-0.78,0.71-1.15C75.879,116.967,75.95,117.017,76.029,117.057z"
         id="path213" /><path
         d="M75.79,116.627c-0.02,0.11,0,0.2,0.04,0.27c-0.27,0.37-0.5,0.75-0.71,1.15C75.31,117.557,75.54,117.087,75.79,116.627z"
         id="path215" /><path
         d="M74.81,123.377c0.21-0.67,0.43-1.34,0.66-2c-0.13,0.65-0.28,1.29-0.58,1.89C74.87,123.307,74.839,123.347,74.81,123.377z"
         id="path217" /><path
         d="M75.12,118.047c-0.19,0.45-0.35,0.91-0.5,1.37c-0.06,0.18-0.02,0.32,0.07,0.399c-0.34,0.83-0.57,1.711-0.7,2.62    C73.97,120.907,74.399,119.407,75.12,118.047z"
         id="path219" /><path
         d="M74.81,123.377c-0.01,0.01-0.01,0.01-0.01,0.02c-0.15,0.46-0.96,0.53-0.91-0.06c0-0.05,0.01-0.1,0.02-0.15    c0.02-0.04,0.06-0.08,0.1-0.12c0.01-0.01,0.01-0.01,0.01-0.02c0.01,0.06,0.01,0.11,0.02,0.17    C74.08,123.597,74.58,123.597,74.81,123.377z"
         id="path221" /><path
         d="M74.02,123.047c0,0.01,0,0.01-0.01,0.02c-0.04,0.04-0.08,0.08-0.1,0.12c0.01-0.25,0.04-0.51,0.08-0.75    C73.99,122.637,74.01,122.847,74.02,123.047z"
         id="path223" /></g><g
       id="g227" /></g><g
     id="XMLID_3_"><g
       id="g400"><path
         d="M109.729,75.773c1.85,1.37,1.84,3.859,1.44,5.92c-0.95,4.89-5.95,7.72-10.21,9.439c-2.32,6.521-4.87,12.971-7.29,19.45    c0-0.36-0.5-0.45-0.78-0.2c1.56-4.04,3.15-8.06,4.62-12.12c0.88-2.449,1.75-4.899,2.6-7.359c0.01-0.12,0.04-0.24,0.12-0.34    c0.6-1.73,1.2-3.46,1.78-5.2c0.86-2.55,1.27-5.7,2.99-7.851C106,76.263,108.06,74.533,109.729,75.773z M110.439,80.433    c0.05-1.35-0.54-5.76-3.34-3.729c-1.54,1.11-2.32,2.729-2.87,4.5c-0.74,2.38-1.46,4.75-2.27,7.11c-0.19,0.569-0.4,1.13-0.6,1.699    C105.459,88.263,110.25,85.313,110.439,80.433z"
         id="path230" /><path
         d="M107.1,76.703c2.8-2.03,3.39,2.38,3.34,3.729c-0.19,4.881-4.98,7.83-9.08,9.58c0.2-0.569,0.41-1.13,0.6-1.699    c0.81-2.36,1.53-4.73,2.27-7.11C104.779,79.433,105.56,77.813,107.1,76.703z"
         id="path232" /><path
         d="M104.229,104.173c0.32-0.52,1.13-0.149,0.78,0.4c-2.08,3.37-4.76,6.479-8.12,8.63c-0.75,0.49-1.48,0.95-2.17,1.42    c0.31-0.27,0.61-0.58,0.9-0.89c0.32-0.34,0.06-0.771-0.27-0.771c0.48-0.2,0.98-0.39,1.48-0.62c1.4-0.63,2.73-1.5,3.85-2.54    c0.4-0.37,0.01-0.87-0.4-0.739C101.729,107.663,103.049,106.083,104.229,104.173z"
         id="path234" /><path
         d="M100.279,109.063c0.41-0.131,0.8,0.369,0.4,0.739c-1.12,1.04-2.45,1.91-3.85,2.54c-0.5,0.23-1,0.42-1.48,0.62    c-0.01-0.01-0.02,0-0.02,0c-0.08,0-0.17,0.03-0.26,0.11c-0.01-0.01-0.01,0-0.01,0c-0.5,0.2-0.99,0.41-1.44,0.689    c-0.01,0-0.01,0-0.01,0c-0.02-0.06-0.07-0.109-0.12-0.14l-0.01-0.01c1.38-0.78,2.94-1.24,4.15-2.37c0.09-0.08,0.19-0.12,0.29-0.13    C98.74,110.463,99.529,109.783,100.279,109.063z"
         id="path236" /><path
         d="M100.069,109.183c0.07-0.06,0.14-0.1,0.21-0.119c-0.75,0.72-1.54,1.399-2.36,2.05c-0.1,0.01-0.2,0.05-0.29,0.13    c-1.21,1.13-2.77,1.59-4.15,2.37c-0.03-0.11-0.1-0.21-0.2-0.25c-0.08-0.13-0.23-0.21-0.38-0.21c0.74-0.521,1.56-0.88,2.47-1.19    C97.089,111.373,98.74,110.423,100.069,109.183z"
         id="path238" /><path
         d="M95.35,112.963c0.33,0,0.59,0.431,0.27,0.771c-0.29,0.31-0.59,0.62-0.9,0.89c-0.64,0.45-1.24,0.89-1.8,1.37    c0.03-0.04,0.06-0.07,0.09-0.11c0-0.01,0.01-0.02,0.01-0.02c0.18-0.141,0.36-0.29,0.54-0.44c0.35-0.29,0.13-0.689-0.21-0.729    c0.59-0.48,1.13-1.011,1.66-1.57c0.02-0.02,0.03-0.04,0.05-0.05c0,0,0-0.01,0.01,0c0.08-0.04,0.17-0.08,0.26-0.11    C95.33,112.963,95.339,112.953,95.35,112.963z"
         id="path240" /><path
         d="M95.33,112.963c-0.09,0.03-0.18,0.07-0.26,0.11C95.16,112.993,95.25,112.963,95.33,112.963z"
         id="path242" /><path
         d="M95.06,113.073c-0.02,0.01-0.03,0.03-0.05,0.05c-0.53,0.56-1.07,1.09-1.66,1.57c-0.07-0.021-0.15-0.011-0.23,0.02    c0.11-0.1,0.22-0.189,0.33-0.27c0.25-0.181,0.27-0.49,0.17-0.681C94.069,113.483,94.56,113.273,95.06,113.073z"
         id="path244" /><path
         d="M93.669,110.583v0.01c-0.12,0.32-0.24,0.63-0.36,0.95c0,0.01-0.01,0.03-0.01,0.04c-0.3,0.67-0.63,1.33-0.95,1.99    c-0.27,0.229-0.53,0.5-0.78,0.8c-0.06,0.07-0.1,0.15-0.11,0.23c-0.1,0.109-0.2,0.22-0.29,0.34c0.56-1.521,1.14-3.04,1.72-4.561    C93.169,110.133,93.669,110.223,93.669,110.583z"
         id="path246" /><path
         d="M93.31,111.543c0.12-0.32,0.24-0.63,0.36-0.95c0,0.051-0.01,0.101-0.04,0.17C93.529,111.023,93.419,111.293,93.31,111.543    z"
         id="path248" /><path
         d="M93.62,113.763c0.1,0.19,0.08,0.5-0.17,0.681c-0.11,0.08-0.22,0.17-0.33,0.27c0,0,0,0-0.01,0    c-0.05,0.021-0.09,0.04-0.14,0.08c-0.14-0.02-0.29,0.03-0.4,0.14c-0.12,0.131-0.23,0.261-0.33,0.4l-0.01,0.01    c-0.13,0.011-0.24,0.08-0.31,0.17c-0.01,0.011-0.01,0.011-0.01,0.021c-0.01-0.01-0.02,0-0.02,0c0.16-0.271,0.37-0.5,0.58-0.72    c0.03-0.03,0.06-0.061,0.09-0.091c0.22-0.189,0.46-0.369,0.71-0.529c0.15-0.09,0.22-0.221,0.23-0.36c0,0,0.01,0,0.01-0.01    c0.03-0.021,0.06-0.04,0.1-0.061C93.609,113.763,93.609,113.763,93.62,113.763z"
         id="path250" /><path
         d="M93.35,114.693c0.34,0.04,0.56,0.439,0.21,0.729c-0.18,0.15-0.36,0.3-0.54,0.44c0.13-0.17,0.22-0.34,0.3-0.53    c0.09-0.22,0-0.4-0.16-0.479C93.229,114.803,93.29,114.753,93.35,114.693z"
         id="path252" /><path
         d="M93.609,113.763c-0.04,0.021-0.07,0.04-0.1,0.061c0.01-0.07,0-0.13-0.02-0.2C93.54,113.653,93.589,113.703,93.609,113.763    z"
         id="path254" /><path
         d="M92.919,115.993c0.56-0.48,1.16-0.92,1.8-1.37c-0.58,0.57-1.18,1.08-1.84,1.51    C92.899,116.083,92.91,116.043,92.919,115.993z"
         id="path256" /><path
         d="M93.51,113.823c0,0.01-0.01,0.01-0.01,0.01c-0.15,0.09-0.3,0.19-0.44,0.3c0.08-0.1,0.15-0.2,0.21-0.31    c0.02-0.04,0.04-0.08,0.05-0.12v-0.01c0.05-0.021,0.1-0.05,0.15-0.08c0-0.01,0.01,0,0.01,0l0.01,0.01    C93.51,113.693,93.52,113.753,93.51,113.823z"
         id="path258" /><path
         d="M93.479,113.613c0,0-0.01-0.01-0.01,0c-0.04-0.03-0.08-0.05-0.13-0.04v-0.01c0-0.08-0.02-0.15-0.06-0.2    C93.379,113.403,93.45,113.503,93.479,113.613z"
         id="path260" /><path
         d="M93.47,113.613c-0.05,0.03-0.1,0.06-0.15,0.08c0.01-0.04,0.02-0.08,0.02-0.12C93.39,113.563,93.43,113.583,93.47,113.613z    "
         id="path262" /><path
         d="M93.5,113.833c-0.01,0.14-0.08,0.271-0.23,0.36c-0.25,0.16-0.49,0.34-0.71,0.529c0.17-0.189,0.35-0.38,0.5-0.59    C93.2,114.023,93.35,113.923,93.5,113.833z"
         id="path264" /><path
         d="M93.16,114.854c0.16,0.079,0.25,0.26,0.16,0.479c-0.08,0.19-0.17,0.36-0.3,0.53c0,0-0.01,0.01-0.01,0.02    c-0.04,0.011-0.07,0.04-0.1,0.061c0-0.15-0.09-0.28-0.23-0.351c-0.04-0.1-0.11-0.18-0.21-0.229    C92.709,115.203,92.939,115.033,93.16,114.854z"
         id="path266" /><path
         d="M93.35,114.693c-0.06,0.06-0.12,0.109-0.19,0.16c-0.04-0.03-0.09-0.051-0.14-0.051c0.03-0.04,0.06-0.06,0.09-0.09    c0.01,0,0.01,0,0.01,0C93.2,114.683,93.279,114.673,93.35,114.693z"
         id="path268" /><path
         d="M93.339,113.563v0.01c0,0.04-0.01,0.08-0.02,0.12v0.01c-0.38,0.22-0.75,0.46-1.08,0.76c0.03-0.09,0.06-0.17,0.09-0.26    c0.02,0,0.04,0,0.06,0c0.22-0.19,0.43-0.37,0.66-0.54C93.16,113.583,93.26,113.553,93.339,113.563z"
         id="path270" /><path
         d="M93.339,113.563c-0.08-0.011-0.18,0.02-0.29,0.1c-0.23,0.17-0.44,0.35-0.66,0.54c-0.02,0-0.04,0-0.06,0    c0.07-0.19,0.14-0.37,0.21-0.56v-0.011c0.1-0.08,0.21-0.149,0.32-0.22c0.16-0.1,0.3-0.11,0.42-0.05    C93.319,113.413,93.339,113.483,93.339,113.563z"
         id="path272" /><path
         d="M93.319,113.703c-0.01,0.04-0.03,0.08-0.05,0.12c-0.06,0.109-0.13,0.21-0.21,0.31c-0.31,0.24-0.6,0.521-0.88,0.851    c-0.17,0.21-0.38,0.22-0.53,0.109c0.1-0.239,0.21-0.489,0.32-0.729c0.1-0.11,0.23-0.15,0.36-0.16c-0.03,0.09-0.06,0.17-0.09,0.26    C92.569,114.163,92.939,113.923,93.319,113.703z"
         id="path274" /><path
         d="M93.299,111.583c-0.2,0.54-0.4,1.08-0.6,1.62c-0.09,0.04-0.16,0.11-0.22,0.21c-0.02,0.03-0.04,0.07-0.06,0.1    c-0.02,0.021-0.04,0.04-0.07,0.061C92.669,112.913,93,112.253,93.299,111.583z"
         id="path276" /><path
         d="M93.279,113.363c-0.12-0.061-0.26-0.05-0.42,0.05c-0.11,0.07-0.22,0.14-0.32,0.22c0.04-0.1,0.07-0.189,0.11-0.29v-0.01    c0.08-0.07,0.16-0.13,0.25-0.18C93.049,113.153,93.2,113.233,93.279,113.363z"
         id="path278" /><path
         d="M92.97,114.793c0.05-0.04,0.09-0.06,0.14-0.08c-0.03,0.03-0.06,0.05-0.09,0.09h-0.01    C93,114.793,92.979,114.783,92.97,114.793z"
         id="path280" /><path
         d="M93.02,114.803c0.05,0,0.1,0.021,0.14,0.051c-0.22,0.18-0.45,0.35-0.69,0.51h-0.01c-0.01,0-0.02-0.01-0.04-0.01    c0.19-0.19,0.39-0.381,0.59-0.551H93.02z"
         id="path282" /><path
         d="M93.01,115.883c-0.03,0.04-0.06,0.07-0.09,0.11c0-0.021,0-0.03-0.01-0.05C92.939,115.923,92.97,115.894,93.01,115.883z"
         id="path284" /><path
         d="M92.97,114.793c0.01-0.01,0.03,0,0.04,0.01c-0.2,0.17-0.4,0.36-0.59,0.551c-0.04-0.011-0.09-0.021-0.14-0.021    c-0.01,0-0.02,0-0.03,0c0.25-0.15,0.46-0.33,0.69-0.52C92.95,114.803,92.959,114.793,92.97,114.793z"
         id="path286" /><path
         d="M92.97,114.793c-0.01,0-0.02,0.01-0.03,0.021c-0.23,0.189-0.44,0.369-0.69,0.52h-0.01c0.1-0.14,0.21-0.27,0.33-0.4    C92.68,114.823,92.83,114.773,92.97,114.793z"
         id="path288" /><path
         d="M92.91,115.943c0.01,0.02,0.01,0.029,0.01,0.05c-0.07,0.05-0.15,0.11-0.22,0.189c0,0-0.01-0.01-0.01,0.011    c-0.05,0.02-0.1,0.029-0.15,0.029c-0.05,0.011-0.08,0.021-0.13,0.021C92.589,116.163,92.75,116.063,92.91,115.943z"
         id="path290" /><path
         d="M92.919,115.993c-0.02,0.02-0.03,0.04-0.05,0.06c-0.06,0.061-0.12,0.101-0.17,0.13    C92.77,116.104,92.85,116.043,92.919,115.993z"
         id="path292" /><path
         d="M92.87,116.053c0.02-0.02,0.03-0.04,0.05-0.06c-0.01,0.05-0.02,0.09-0.04,0.14c-0.12,0.09-0.24,0.17-0.36,0.25    c-0.03,0.021-0.06,0.04-0.09,0.04c0.09-0.09,0.17-0.17,0.26-0.229c0-0.021,0.01-0.011,0.01-0.011    C92.75,116.153,92.81,116.113,92.87,116.053z"
         id="path294" /><path
         d="M92.7,113.203c0.06-0.04,0.13-0.05,0.2-0.05c-0.09,0.05-0.17,0.109-0.25,0.18C92.669,113.293,92.68,113.243,92.7,113.203z    "
         id="path296" /><path
         d="M92.52,116.383c0.12-0.08,0.24-0.16,0.36-0.25c-0.03,0.061-0.07,0.12-0.13,0.17c-2.05,1.801-1.69,5.17-3.63,7    c-0.42,0.391-0.97-0.08-0.71-0.5c-0.01,0.051-0.02,0.101-0.02,0.15c-0.05,0.59,0.76,0.52,0.91,0.06c0-0.01,0-0.01,0.01-0.02    c0.03-0.03,0.06-0.07,0.08-0.11c0.3-0.6,0.45-1.239,0.58-1.89c0.31-0.97,0.64-1.93,0.97-2.9c0.43-0.609,0.93-1.16,1.49-1.67    C92.459,116.423,92.49,116.403,92.52,116.383z"
         id="path298" /><path
         d="M92.74,110.593c0.03-0.09,0.08-0.16,0.15-0.21c-0.58,1.521-1.16,3.04-1.72,4.561c-0.33,0.399-0.62,0.84-0.88,1.3    c0-0.03,0.01-0.061,0.02-0.09C90.91,114.213,92.029,112.493,92.74,110.593z"
         id="path300" /><path
         d="M92.68,115.593c0.14,0.07,0.23,0.2,0.23,0.351c-0.16,0.12-0.32,0.22-0.5,0.3h-0.01c-0.01,0-0.01,0-0.02,0    C92.64,116.144,92.76,115.823,92.68,115.593z"
         id="path302" /><path
         d="M93.06,114.133c-0.15,0.21-0.33,0.4-0.5,0.59c-0.03,0.03-0.06,0.061-0.09,0.091c-0.35,0.319-0.65,0.67-0.92,1.05    c-0.06,0.03-0.13,0.04-0.2,0.02c0.09-0.27,0.19-0.529,0.3-0.79c0.15,0.11,0.36,0.101,0.53-0.109    C92.459,114.653,92.75,114.373,93.06,114.133z"
         id="path304" /><path
         d="M92.7,113.203c-0.02,0.04-0.03,0.09-0.05,0.13v0.01c-0.08,0.051-0.15,0.11-0.23,0.17c0.02-0.029,0.04-0.069,0.06-0.1    C92.54,113.313,92.609,113.243,92.7,113.203z"
         id="path306" /><path
         d="M92.68,115.593c0.08,0.23-0.04,0.551-0.3,0.65c-0.23-0.01-0.43-0.17-0.42-0.39c0.05-0.07,0.11-0.12,0.17-0.171    C92.319,115.513,92.529,115.513,92.68,115.593z"
         id="path308" /><path
         d="M92.689,116.193c-0.09,0.06-0.17,0.14-0.26,0.229c-0.24,0.101-0.42,0-0.5-0.17c0.12,0.07,0.28,0.09,0.46,0l0.01-0.01h0.01    c0.05,0,0.08-0.01,0.13-0.021C92.589,116.223,92.64,116.213,92.689,116.193z"
         id="path310" /><path
         d="M92.649,113.343c-0.04,0.101-0.07,0.19-0.11,0.29v0.011c-0.12,0.069-0.23,0.159-0.34,0.25    c0.02-0.051,0.05-0.101,0.07-0.15c0.05-0.07,0.1-0.15,0.15-0.23C92.5,113.453,92.569,113.394,92.649,113.343z"
         id="path312" /><path
         d="M92.68,115.593c-0.15-0.08-0.36-0.08-0.55,0.09c-0.06,0.051-0.12,0.101-0.17,0.171c0-0.011,0-0.011,0.01-0.021    c0.01-0.02,0.02-0.03,0.03-0.05c0.1-0.11,0.2-0.21,0.3-0.311c0.01-0.02,0.03-0.029,0.05-0.04c0.04-0.01,0.07-0.029,0.11-0.069    h0.01C92.569,115.413,92.64,115.493,92.68,115.593z"
         id="path314" /><path
         d="M92.54,113.644c-0.07,0.189-0.14,0.369-0.21,0.56c-0.13,0.01-0.26,0.05-0.36,0.16c0.07-0.15,0.15-0.311,0.22-0.46    l0.01-0.01C92.31,113.803,92.419,113.713,92.54,113.644z"
         id="path316" /><path
         d="M92.459,115.363c-0.04,0.04-0.07,0.06-0.11,0.069c0.02-0.029,0.04-0.05,0.07-0.079    C92.439,115.354,92.45,115.363,92.459,115.363z"
         id="path318" /><path
         d="M92.279,115.333c0.05,0,0.1,0.01,0.14,0.021c-0.03,0.029-0.05,0.05-0.07,0.079c-0.02,0.011-0.04,0.021-0.05,0.04    c-0.06,0.051-0.12,0.091-0.19,0.131c-0.04,0.029-0.07,0.05-0.1,0.079c0.01-0.02,0.02-0.05,0.04-0.079    c0.06-0.091,0.11-0.171,0.17-0.25c0.01,0,0.01-0.011,0.01-0.011l0.01-0.01h0.01C92.26,115.333,92.27,115.333,92.279,115.333z"
         id="path320" /><path
         d="M92.399,116.243l-0.01,0.01c-0.18,0.09-0.34,0.07-0.46,0c-0.03-0.04-0.04-0.08-0.04-0.13c0.06,0.09,0.17,0.15,0.33,0.15    c0.06,0,0.11-0.011,0.16-0.03C92.39,116.243,92.39,116.243,92.399,116.243z"
         id="path322" /><path
         d="M91.93,116.253c0.08,0.17,0.26,0.271,0.5,0.17c-0.56,0.51-1.06,1.061-1.49,1.67c-0.33,0.971-0.66,1.931-0.97,2.9    c0.1-0.58,0.18-1.18,0.33-1.771c0.26-1.029,0.85-2.13,1.49-3.119C91.819,116.163,91.87,116.213,91.93,116.253z"
         id="path324" /><path
         d="M92.35,113.573c0.03-0.021,0.05-0.04,0.07-0.061c-0.05,0.08-0.1,0.16-0.15,0.23    C92.299,113.683,92.33,113.623,92.35,113.573z"
         id="path326" /><path
         d="M92.35,113.573c-0.02,0.05-0.05,0.109-0.08,0.17c-0.1,0.13-0.2,0.25-0.31,0.36c0,0-0.01,0-0.01,0.01    c-0.17,0.149-0.34,0.319-0.49,0.49c0.01-0.08,0.05-0.16,0.11-0.23C91.819,114.073,92.08,113.803,92.35,113.573z"
         id="path328" /><path
         d="M92.379,116.243c-0.05,0.02-0.1,0.03-0.16,0.03c-0.16,0-0.27-0.061-0.33-0.15c-0.01-0.01-0.02-0.01-0.01-0.02    c-0.02-0.04-0.02-0.08-0.01-0.131c0.01-0.01,0.01-0.02,0.01-0.02c0.02-0.021,0.03-0.04,0.04-0.06c0.02-0.011,0.03-0.03,0.04-0.04    C91.95,116.073,92.149,116.233,92.379,116.243z"
         id="path330" /><path
         d="M92.299,115.473c-0.1,0.101-0.2,0.2-0.3,0.311c-0.01,0.02-0.02,0.03-0.03,0.05c-0.01-0.03,0-0.06,0.01-0.1    c0.01-0.011,0.01-0.03,0.03-0.051c0.03-0.029,0.06-0.05,0.1-0.079C92.18,115.563,92.24,115.523,92.299,115.473z"
         id="path332" /><path
         d="M92.27,113.743c-0.02,0.05-0.05,0.1-0.07,0.15l-0.01,0.01c-0.08,0.06-0.15,0.13-0.23,0.2    C92.069,113.993,92.169,113.873,92.27,113.743z"
         id="path334" /><path
         d="M92.24,115.333l-0.01,0.01L92.24,115.333z"
         id="path336" /><path
         d="M92.229,115.343c0,0,0,0.011-0.01,0.011c-0.07,0.04-0.15,0.079-0.23,0.119c-0.03,0.011-0.05,0.021-0.07,0.04    C91.99,115.423,92.1,115.354,92.229,115.343z"
         id="path338" /><path
         d="M92.22,115.354c-0.06,0.079-0.11,0.159-0.17,0.25c-0.02,0.029-0.03,0.06-0.04,0.079c-0.02,0.021-0.02,0.04-0.03,0.051    c-0.06,0.06-0.09,0.13-0.1,0.199c-0.02,0.011-0.04,0.03-0.06,0.061c-0.05-0.15-0.01-0.33,0.09-0.46c0-0.01,0-0.01,0.01-0.021    c0.02-0.02,0.04-0.029,0.07-0.04C92.069,115.433,92.149,115.394,92.22,115.354z"
         id="path340" /><path
         d="M91.959,114.104c0.08-0.07,0.15-0.141,0.23-0.2c-0.07,0.149-0.15,0.31-0.22,0.46c-0.02,0.01-0.04,0.03-0.05,0.05    c-0.14,0.19-0.27,0.38-0.39,0.57c-0.07-0.09-0.1-0.2-0.08-0.32c0.16-0.19,0.34-0.36,0.5-0.55    C91.95,114.104,91.959,114.104,91.959,114.104z"
         id="path342" /><path
         d="M92.47,114.813c-0.21,0.22-0.42,0.449-0.58,0.72c-0.01,0.01-0.01,0.01-0.01,0.02c-0.08,0.051-0.12,0.12-0.14,0.2    c-0.05,0.061-0.12,0.101-0.19,0.11C91.819,115.483,92.12,115.133,92.47,114.813z"
         id="path344" /><path
         d="M91.979,115.733c-0.01,0.04-0.02,0.069-0.01,0.1c-0.01,0.01-0.01,0.01-0.01,0.021c-0.01,0.01-0.02,0.029-0.04,0.04    c-0.01,0-0.03,0.01-0.04,0.039C91.89,115.863,91.919,115.793,91.979,115.733z"
         id="path346" /><path
         d="M91.919,114.413c0.01-0.02,0.03-0.04,0.05-0.05c-0.11,0.24-0.22,0.49-0.32,0.729c-0.05-0.02-0.09-0.06-0.12-0.109    C91.649,114.793,91.779,114.604,91.919,114.413z"
         id="path348" /><path
         d="M91.919,115.894c-0.01,0.02-0.02,0.039-0.04,0.06c0-0.01,0-0.021,0-0.021C91.89,115.903,91.91,115.894,91.919,115.894z"
         id="path350" /><path
         d="M91.89,115.533c0,0,0.01-0.01,0.02,0c-0.1,0.13-0.14,0.31-0.09,0.46c-0.02,0.02-0.04,0.04-0.06,0.06    c-0.05-0.09-0.06-0.199-0.02-0.3c0.04-0.04,0.07-0.08,0.09-0.12c0.01-0.029,0.03-0.05,0.05-0.08    C91.879,115.543,91.879,115.543,91.89,115.533z"
         id="path352" /><path
         d="M91.89,116.123c0,0.05,0.01,0.09,0.04,0.13c-0.06-0.04-0.11-0.09-0.14-0.149c0.02-0.03,0.03-0.051,0.04-0.07h0.01    c0,0.03,0.01,0.05,0.04,0.07C91.87,116.113,91.879,116.113,91.89,116.123z"
         id="path354" /><path
         d="M91.879,115.953c0,0,0,0.01-0.01,0.02c-0.01,0.021-0.02,0.04-0.03,0.061h-0.01c0-0.01-0.01-0.021-0.01-0.04    c0.02-0.03,0.04-0.05,0.06-0.061C91.879,115.933,91.879,115.943,91.879,115.953z"
         id="path356" /><path
         d="M91.87,115.973c-0.01,0.051-0.01,0.091,0.01,0.131c-0.03-0.021-0.04-0.04-0.04-0.07    C91.85,116.013,91.859,115.993,91.87,115.973z"
         id="path358" /><path
         d="M91.879,115.553c-0.02,0.03-0.04,0.051-0.05,0.08c-0.02,0.04-0.05,0.08-0.09,0.12    C91.76,115.673,91.799,115.604,91.879,115.553z"
         id="path360" /><path
         d="M91.83,116.033c-0.01,0.02-0.02,0.04-0.04,0.07c-0.01-0.011-0.02-0.03-0.03-0.051c0.02-0.02,0.04-0.04,0.06-0.06    C91.819,116.013,91.83,116.023,91.83,116.033z"
         id="path362" /><path
         d="M91.76,116.053c0.01,0.021,0.02,0.04,0.03,0.051c-0.64,0.989-1.23,2.09-1.49,3.119c-0.15,0.591-0.23,1.19-0.33,1.771    c-0.23,0.66-0.45,1.33-0.66,2c-0.23,0.22-0.73,0.22-0.77-0.16c-0.01-0.06-0.01-0.11-0.02-0.17c0.9-0.86,1.24-2.55,1.7-3.7    C90.64,117.903,91.01,116.883,91.76,116.053z"
         id="path364" /><path
         d="M91.74,115.753c-0.04,0.101-0.03,0.21,0.02,0.3c-0.75,0.83-1.12,1.851-1.54,2.91c-0.46,1.15-0.8,2.84-1.7,3.7    c-0.01-0.2-0.03-0.41-0.03-0.61c0.13-0.909,0.36-1.79,0.7-2.62c0.2,0.221,0.69,0.16,0.82-0.229c0.38-1.17,0.84-2.34,1.54-3.34    C91.62,115.854,91.689,115.813,91.74,115.753z"
         id="path366" /><path
         d="M91.95,114.113c-0.16,0.189-0.34,0.359-0.5,0.55c-0.01-0.02,0-0.04,0.01-0.06    C91.609,114.433,91.779,114.263,91.95,114.113z"
         id="path368" /><path
         d="M91.529,114.983c0.03,0.05,0.07,0.09,0.12,0.109c-0.11,0.261-0.21,0.521-0.3,0.79c-0.01,0-0.01,0-0.01,0    c-0.15-0.029-0.28-0.12-0.33-0.27c0.12-0.15,0.25-0.29,0.38-0.431C91.43,115.113,91.479,115.053,91.529,114.983z"
         id="path370" /><path
         d="M91.529,114.983c-0.05,0.069-0.1,0.13-0.14,0.199c-0.13,0.141-0.26,0.28-0.38,0.431c-0.02-0.04-0.03-0.09-0.03-0.141    c0-0.02,0-0.04,0.01-0.06c0.03-0.08,0.06-0.16,0.09-0.24c0-0.01,0-0.01,0.01-0.02c0.1-0.181,0.23-0.34,0.36-0.49    C91.43,114.783,91.459,114.894,91.529,114.983z"
         id="path372" /><path
         d="M91.35,115.883c0.07,0.021,0.14,0.011,0.2-0.02c-0.7,1-1.16,2.17-1.54,3.34c-0.13,0.39-0.62,0.45-0.82,0.229    c0.29-0.75,0.66-1.47,1.11-2.13c0.08-0.21,0.15-0.42,0.23-0.63c0.23,0.07,0.56-0.029,0.66-0.34c0.05-0.15,0.1-0.3,0.15-0.45    C91.339,115.883,91.339,115.883,91.35,115.883z"
         id="path374" /><path
         d="M91.459,114.604c-0.01,0.02-0.02,0.04-0.01,0.06c-0.13,0.15-0.26,0.31-0.36,0.49c0.02-0.07,0.05-0.141,0.08-0.21    C91.26,114.823,91.359,114.713,91.459,114.604z"
         id="path376" /><path
         d="M91.339,115.883c-0.05,0.15-0.1,0.3-0.15,0.45c-0.1,0.311-0.43,0.41-0.66,0.34c0.1-0.29,0.21-0.58,0.32-0.87    c0.06-0.06,0.11-0.13,0.16-0.189C91.06,115.763,91.189,115.854,91.339,115.883z"
         id="path378" /><path
         d="M91.169,114.943c-0.03,0.069-0.06,0.14-0.08,0.21c-0.01,0.01-0.01,0.01-0.01,0.02c-0.01,0.021-0.02,0.03-0.03,0.05    c-0.04,0.07-0.06,0.131-0.06,0.19c-0.01,0.02-0.01,0.04-0.01,0.06c-0.05,0.11-0.09,0.221-0.13,0.33    c-0.18,0.23-0.36,0.471-0.52,0.71c-0.04-0.069-0.06-0.159-0.04-0.27C90.549,115.783,90.839,115.343,91.169,114.943z"
         id="path380" /><path
         d="M91.08,115.173c-0.03,0.08-0.06,0.16-0.09,0.24c0-0.06,0.02-0.12,0.06-0.19C91.06,115.203,91.069,115.193,91.08,115.173z"
         id="path382" /><path
         d="M91.01,115.613c-0.05,0.06-0.1,0.13-0.16,0.189c0.04-0.109,0.08-0.22,0.13-0.33    C90.979,115.523,90.99,115.573,91.01,115.613z"
         id="path384" /><path
         d="M90.85,115.803c-0.11,0.29-0.22,0.58-0.32,0.87c-0.08-0.04-0.15-0.09-0.2-0.16    C90.49,116.273,90.669,116.033,90.85,115.803z"
         id="path386" /><path
         d="M90.529,116.673c-0.08,0.21-0.15,0.42-0.23,0.63c-0.45,0.66-0.82,1.38-1.11,2.13c-0.09-0.079-0.13-0.22-0.07-0.399    c0.15-0.46,0.31-0.92,0.5-1.37c0.21-0.4,0.44-0.78,0.71-1.15C90.379,116.583,90.45,116.633,90.529,116.673z"
         id="path388" /><path
         d="M90.29,116.243c-0.02,0.11,0,0.2,0.04,0.27c-0.27,0.37-0.5,0.75-0.71,1.15C89.81,117.173,90.04,116.703,90.29,116.243z"
         id="path390" /><path
         d="M89.31,122.993c0.21-0.67,0.43-1.34,0.66-2c-0.13,0.65-0.28,1.29-0.58,1.89C89.37,122.923,89.339,122.963,89.31,122.993z"
         id="path392" /><path
         d="M89.62,117.663c-0.19,0.45-0.35,0.91-0.5,1.37c-0.06,0.18-0.02,0.32,0.07,0.399c-0.34,0.83-0.57,1.711-0.7,2.62    C88.47,120.523,88.899,119.023,89.62,117.663z"
         id="path394" /><path
         d="M89.31,122.993c-0.01,0.01-0.01,0.01-0.01,0.02c-0.15,0.46-0.96,0.53-0.91-0.06c0-0.05,0.01-0.1,0.02-0.15    c0.02-0.04,0.06-0.08,0.1-0.12c0.01-0.01,0.01-0.01,0.01-0.02c0.01,0.06,0.01,0.11,0.02,0.17    C88.58,123.213,89.08,123.213,89.31,122.993z"
         id="path396" /><path
         d="M88.52,122.663c0,0.01,0,0.01-0.01,0.02c-0.04,0.04-0.08,0.08-0.1,0.12c0.01-0.25,0.04-0.51,0.08-0.75    C88.49,122.253,88.51,122.463,88.52,122.663z"
         id="path398" /></g><g
       id="g402" /></g><path
     d="M129.742,86.919c-0.045-0.175-0.155-0.33-0.301-0.473c-0.012-0.015-0.009-0.038-0.025-0.05  c-0.042-0.031-0.083-0.063-0.125-0.094c-0.002,0.003-0.004,0.005-0.006,0.008c-0.033-0.024-0.054-0.055-0.089-0.077  c-0.099-0.063-0.208-0.066-0.313-0.034c0,0-0.001,0-0.002,0c-0.006,0.002-0.012,0.003-0.017,0.005  c-0.1,0.017-0.206,0.061-0.32,0.148c-0.296,0.228-0.61,0.592-0.422,0.992c0.064,0.138,0.402,0.348,0.48,0.454  c-1.057,1.886-3.374-0.72-4.074-1.99c-0.391-0.709-0.507-1.498-0.456-2.313c1.237-2.288,2.081-4.798,2.229-6.021  c0.052-0.431-0.447-0.521-0.728-0.314c0.114-0.273,0.018-0.626-0.375-0.621c-1.883,0.024-3.805,1.12-5.35,2.49  c-0.185,0.139-0.356,0.293-0.509,0.472c-0.576,0.563-1.088,1.156-1.504,1.729c-1.283,1.765-2.7,5.197-0.096,6.651  c2.008,1.12,4.019-0.671,5.589-3.123c0.132,0.966,0.489,1.913,1.18,2.816c1.57,2.056,4.113,2.668,5.096,0.209  c0.091-0.082,0.15-0.198,0.144-0.346c-0.001-0.02-0.006-0.044-0.008-0.064c0.011-0.039,0.026-0.072,0.037-0.113  C129.816,87.116,129.795,87.005,129.742,86.919z M123.302,83.171c-0.107,0.187-0.22,0.368-0.333,0.55  c-0.657,0.832-1.452,1.521-2.343,2.097c-1.128,0.729-1.715,0.026-1.981-1.031c-0.194-0.772-0.06-1.49,0.168-2.238  c0.202-0.66,0.562-1.671,1.082-2.353c1.429-1.412,3.352-2.698,5.24-2.722c0.11-0.002,0.198-0.045,0.273-0.104  C124.444,79.188,123.495,81.19,123.302,83.171z"
     id="path405" /><path
     d="M139.962,79.271c-1.04-0.332-2.079-0.238-3.146-0.199c-0.991,0.174-1.203-0.4-0.637-1.726  c0.374-0.208,0.768-0.36,1.183-0.459c0.531-0.155,1.116-0.2,1.682-0.163c0.066,0.048,0.146,0.083,0.258,0.083  c0.062,0,0.114-0.016,0.165-0.035c0.072,0.011,0.146,0.016,0.217,0.028c0.544,0.1,0.907-0.811,0.301-0.922  c-1.566-0.286-4.671,0.004-5.303,1.843c-0.686,1.991,0.98,2.296,2.508,2.263c0.063,0.033,0.138,0.056,0.237,0.047  c1.664-0.144,4.18,1.381,3.796,3.32c-0.015,0.076-0.044,0.146-0.065,0.219c-0.387,0.662-0.837,1.215-1.423,1.769  c-0.485,0.458-0.948,0.918-1.373,1.424c-0.326,0.182-0.658,0.354-0.982,0.537c-1.167,0.228-2.367,0.285-3.537,0.105  c-1.129-0.175-2.024-0.769-2.605-1.745c-0.477-0.798-0.236-1.505,0.721-2.123c0.298,0.032,0.596,0.064,0.893,0.097  c0.522,0.166,0.823,0.322,0.921,0.47c-0.342,0.098-0.683,0.194-1.023,0.292c-0.285,0.082-0.469,0.432-0.336,0.703  c1.181,2.424,4.07-1.25,0.739-2.387c-1.595-0.544-3.026,0.466-3.118,2.071c-0.112,1.97,1.869,3.163,3.509,3.543  c3.329,0.771,10.392-0.944,10.342-5.271C143.859,81.004,141.632,79.805,139.962,79.271z"
     id="path407" /><path
     d="M154.334,79.372c-1.04-0.332-2.079-0.238-3.146-0.199c-0.991,0.174-1.203-0.4-0.637-1.726  c0.374-0.208,0.768-0.36,1.183-0.459c0.531-0.155,1.116-0.2,1.682-0.163c0.066,0.048,0.146,0.083,0.258,0.083  c0.062,0,0.114-0.016,0.165-0.035c0.072,0.011,0.146,0.016,0.217,0.028c0.544,0.1,0.907-0.811,0.301-0.922  c-1.566-0.286-4.671,0.004-5.303,1.843c-0.686,1.991,0.98,2.296,2.508,2.263c0.063,0.033,0.138,0.056,0.237,0.047  c1.664-0.144,4.18,1.381,3.796,3.32c-0.015,0.076-0.044,0.146-0.065,0.219c-0.387,0.662-0.837,1.215-1.423,1.769  c-0.485,0.458-0.948,0.918-1.373,1.424c-0.326,0.182-0.658,0.354-0.982,0.537c-1.167,0.228-2.367,0.285-3.537,0.105  c-1.129-0.175-2.024-0.769-2.605-1.745c-0.477-0.798-0.236-1.505,0.721-2.123c0.298,0.032,0.596,0.064,0.893,0.097  c0.522,0.166,0.823,0.322,0.921,0.47c-0.342,0.098-0.683,0.194-1.023,0.292c-0.285,0.082-0.469,0.432-0.336,0.703  c1.181,2.424,4.07-1.25,0.739-2.387c-1.595-0.544-3.026,0.466-3.118,2.071c-0.112,1.97,1.869,3.163,3.509,3.543  c3.329,0.771,10.392-0.944,10.342-5.271C158.231,81.105,156.004,79.906,154.334,79.372z"
     id="path409" /><path
     d="M163.602,81.522c-0.202-2.082-0.715-4.208-2.206-5.751c-0.396-0.41-1.104,0.297-0.707,0.707  c1.254,1.298,1.685,3.031,1.937,4.77c0.396,2.735-1.121,4.49-2.39,6.675c-0.325,0.561,0.475,0.933,0.781,0.404  C162.304,86.11,163.869,84.273,163.602,81.522z"
     id="path411" /><path
     d="M191.548,85.366c-0.348-0.476-1.172,0.072-0.846,0.518c-0.619,0.341-1.239,0.682-1.858,1.021  c-0.189-0.501-0.304-1.018-0.342-1.55c-0.094-0.745-0.049-1.546-0.028-2.297c0.034-1.314,0.071-2.604-0.123-3.908  c-0.317-2.134-1.897-3.41-4.023-3.323c-1.072,0.044-1.951,0.693-2.652,1.553c0.017-0.346,0.037-0.69,0.043-1.037  c0.01-0.638-0.926-0.5-0.936,0.064c-0.015,0.881-0.075,1.755-0.164,2.624c-0.263,0.515-0.477,1.024-0.646,1.472  c-0.935,2.479-2.236,5.448-1.934,8.147c0.063,0.563,0.756,0.259,0.905-0.063c1.368-2.965,2.225-6.097,2.582-9.313  c0.292-0.549,0.633-1.075,1.069-1.564c2.201-2.469,4.568-0.046,4.912,2.27c0.223,1.495-0.015,3.049,0.024,4.554  c0.042,1.592,0.234,4.25,2.44,4.097C191.527,88.521,192.429,86.57,191.548,85.366z"
     id="path413" /><path
     d="M205.356,87.351c-0.045-0.175-0.155-0.33-0.301-0.473c-0.012-0.015-0.009-0.038-0.025-0.05  c-0.042-0.031-0.083-0.063-0.125-0.094c-0.002,0.003-0.004,0.005-0.006,0.008c-0.033-0.024-0.054-0.055-0.089-0.077  c-0.099-0.063-0.208-0.066-0.313-0.034c0,0-0.001,0-0.002,0c-0.006,0.002-0.012,0.003-0.017,0.005  c-0.1,0.017-0.206,0.061-0.32,0.148c-0.296,0.228-0.61,0.592-0.422,0.992c0.064,0.138,0.402,0.348,0.48,0.454  c-1.057,1.886-3.374-0.72-4.074-1.99c-0.391-0.709-0.507-1.498-0.456-2.313c1.237-2.288,2.081-4.798,2.229-6.021  c0.052-0.431-0.447-0.521-0.728-0.314c0.114-0.273,0.018-0.626-0.375-0.621c-1.883,0.024-3.805,1.12-5.35,2.49  c-0.185,0.139-0.356,0.293-0.509,0.472c-0.576,0.563-1.088,1.156-1.504,1.729c-1.283,1.765-2.7,5.197-0.096,6.651  c2.008,1.12,4.019-0.671,5.589-3.123c0.132,0.966,0.489,1.913,1.18,2.816c1.57,2.056,4.113,2.668,5.096,0.209  c0.091-0.082,0.15-0.198,0.144-0.346c-0.001-0.02-0.006-0.044-0.008-0.064c0.011-0.039,0.026-0.072,0.037-0.113  C205.431,87.548,205.409,87.437,205.356,87.351z M198.916,83.603c-0.107,0.187-0.22,0.368-0.333,0.55  c-0.657,0.832-1.452,1.521-2.343,2.097c-1.128,0.729-1.715,0.026-1.981-1.031c-0.194-0.772-0.06-1.49,0.168-2.238  c0.202-0.66,0.562-1.671,1.082-2.353c1.429-1.412,3.352-2.698,5.24-2.722c0.11-0.002,0.198-0.045,0.273-0.104  C200.059,79.62,199.109,81.622,198.916,83.603z"
     id="path415" /><path
     d="M216.771,68.229c-0.584-0.75-1.167-1.5-1.75-2.25c-0.204-0.263-0.603-0.057-0.744,0.151  c-0.413,0.607-0.734,1.261-1.081,1.903c-0.524-0.606-0.977-1.262-1.578-1.8c0.288-0.905,0.57-1.813,0.828-2.725  c0.177-0.625-0.729-0.736-0.889-0.174c-0.275,0.973-0.573,1.939-0.878,2.904c-0.354,0.6-0.701,1.204-1.05,1.808  c-0.453-0.903-1.112-2.217-1.847-2.098c-1.289,0.209-1.328,1.583-1.644,2.631c-0.188,0.623,0.721,0.732,0.889,0.174  c0.042-0.14,0.448-2.009,0.788-1.682c0.593,0.571,0.872,1.516,1.345,2.187c0.12,0.171,0.308,0.219,0.482,0.179  c-1.33,4.045-2.657,8.088-3.28,12.32c-0.323,2.189-0.484,8.485,3.575,6.431c1.329-0.672,3.638-2.236,3.5-3.997  c-0.11-1.42-1.848-2.336-2.737-0.887c-0.549,0.895,0.093,2.372,1.117,2.007c-0.588,0.807-1.813,1.85-1.893,1.897  c-1.234,0.745-2.279,0.22-2.655-1.08c-0.532-1.84-0.059-4.078,0.268-5.916c0.786-4.426,2.344-8.656,3.74-12.924  c0.564,0.608,1.011,1.314,1.619,1.897c0.227,0.218,0.596,0.099,0.744-0.151c0.368-0.618,0.676-1.265,1.034-1.885  c0.462,0.596,0.925,1.19,1.389,1.786C216.411,69.383,217.119,68.677,216.771,68.229z"
     id="path417" /><path
     d="M227.356,87.202c-0.045-0.175-0.155-0.33-0.301-0.473c-0.012-0.015-0.009-0.038-0.025-0.05  c-0.042-0.031-0.083-0.063-0.125-0.094c-0.002,0.003-0.004,0.005-0.006,0.008c-0.033-0.024-0.054-0.055-0.089-0.077  c-0.099-0.063-0.208-0.066-0.313-0.034c0,0-0.001,0-0.002,0c-0.006,0.002-0.012,0.003-0.017,0.005  c-0.1,0.017-0.206,0.061-0.32,0.148c-0.296,0.228-0.61,0.592-0.422,0.992c0.064,0.138,0.402,0.348,0.48,0.454  c-1.057,1.886-3.374-0.72-4.074-1.99c-0.391-0.709-0.507-1.498-0.456-2.313c1.237-2.288,2.081-4.798,2.229-6.021  c0.052-0.431-0.447-0.521-0.728-0.314c0.114-0.273,0.018-0.626-0.375-0.621c-1.883,0.024-3.805,1.12-5.35,2.49  c-0.185,0.139-0.356,0.293-0.509,0.472c-0.576,0.563-1.088,1.156-1.504,1.729c-1.283,1.765-2.7,5.197-0.096,6.651  c2.008,1.12,4.019-0.671,5.589-3.123c0.132,0.966,0.489,1.913,1.18,2.816c1.57,2.056,4.113,2.668,5.096,0.209  c0.091-0.082,0.15-0.198,0.144-0.346c-0.001-0.02-0.006-0.044-0.008-0.064c0.011-0.039,0.026-0.072,0.037-0.113  C227.431,87.399,227.409,87.288,227.356,87.202z M220.916,83.454c-0.107,0.187-0.22,0.368-0.333,0.55  c-0.657,0.832-1.452,1.521-2.343,2.097c-1.128,0.729-1.715,0.026-1.981-1.031c-0.194-0.772-0.06-1.49,0.168-2.238  c0.202-0.66,0.562-1.671,1.082-2.353c1.429-1.412,3.352-2.698,5.24-2.722c0.11-0.002,0.198-0.045,0.273-0.104  C222.059,79.472,221.109,81.474,220.916,83.454z"
     id="path419" /><path
     d="M168.237,71.849c-0.343-0.571-0.746-1.079-1.179-1.546c-0.051-0.108-0.123-0.21-0.243-0.292  c-0.021-0.014-0.041-0.024-0.062-0.038c-3.322-3.257-8.639-3.565-11.724,0.023c-0.026,0.03-0.057,0.059-0.076,0.092  c-0.375,0.45-0.728,0.94-1.025,1.511c-0.422,0.809,0.801,1.525,1.225,0.716c0.267-0.511,0.58-0.947,0.916-1.343  c3.209-2.02,6.673-1.897,9.829,0.145c0.413,0.43,0.791,0.91,1.114,1.448C167.483,73.347,168.709,72.634,168.237,71.849z"
     id="path421" /><g
     id="g427"><g
       id="g425"><path
         d="M157.112,69.94c2.014-2.705,6.343-1.895,8.067,0.584c0.519,0.745,1.748,0.037,1.225-0.715    c-2.381-3.421-7.844-4.173-10.517-0.584C155.342,69.959,156.573,70.665,157.112,69.94L157.112,69.94z"
         id="path423" /></g></g><ellipse
     cx="160.813"
     cy="71.542"
     rx="1.083"
     ry="1.042"
     id="ellipse429" /><path
     stroke="#000000"
     stroke-width="0.2835"
     stroke-miterlimit="10"
     d="M173.432,76.551c-5.059-0.408-9.855,8.801-6.549,11.908  c0.292,0.205,0.462,0.33,0.462,0.33c3.944,0.009,7.035-2.869,8.882-5.649C178.21,80.152,177.308,76.864,173.432,76.551z   M174.479,84.028c-1.315,1.904-3.616,3.501-5.927,3.903c-0.054-0.022-0.115-0.038-0.189-0.038c-2.642-0.011-1.019-3.938-0.932-5.492  c0.168-2.995,5.671-7.259,7.046-4.726C176.253,80.945,176.457,81.166,174.479,84.028z"
     id="path431" /><line
     fill="none"
     stroke="#000000"
     stroke-width="0.7087"
     stroke-miterlimit="10"
     x1="73.842"
     y1="91.815"
     x2="241.167"
     y2="91.896"
     id="line433" /><line
     fill="none"
     stroke="#000000"
     stroke-width="0.7087"
     stroke-miterlimit="10"
     x1="76.765"
     y1="87.816"
     x2="241.056"
     y2="87.819"
     id="line435" /><line
     fill="none"
     stroke="#000000"
     stroke-width="0.7087"
     stroke-miterlimit="10"
     x1="80.019"
     y1="83.384"
     x2="241.169"
     y2="83.388"
     id="line437" /><line
     fill="none"
     stroke="#000000"
     stroke-width="0.7087"
     stroke-miterlimit="10"
     x1="80.059"
     y1="78.996"
     x2="241.209"
     y2="79"
     id="line439" /><line
     fill="none"
     stroke="#000000"
     stroke-width="0.7087"
     stroke-miterlimit="10"
     x1="79.906"
     y1="74.5"
     x2="241.056"
     y2="74.504"
     id="line441" /><rect
     x="93.508"
     y="53.349"
     fill="none"
     width="124.667"
     height="28.999"
     id="rect443" /><g
     aria-label="CAMERATA"
     transform="matrix(1 0 0 1 93.5083 58.8711)"
     style="font-size:8px;font-family:Champagne"
     id="text445"><path
       d="m 5.2734375,-0.421875 q -0.2148438,0.09375 -0.390625,0.17578125 -0.171875,0.0820313 -0.453125,0.171875 Q 4.1914062,0 3.9101563,0.05078125 3.6328125,0.10546875 3.296875,0.10546875 q -0.6328125,0 -1.1523437,-0.17578125 Q 1.6289062,-0.25 1.2460937,-0.62890625 0.87109375,-1 0.66015625,-1.5703125 q -0.2109375,-0.5742188 -0.2109375,-1.3320313 0,-0.71875 0.203125,-1.2851562 0.203125,-0.5664062 0.58593745,-0.9570312 0.3710938,-0.3789063 0.8945313,-0.578125 0.5273438,-0.1992188 1.1679688,-0.1992188 0.46875,0 0.9335937,0.1132813 0.46875,0.1132812 1.0390625,0.3984375 v 0.9179687 H 5.2148437 Q 4.734375,-4.8945312 4.2617187,-5.078125 3.7890625,-5.2617187 3.25,-5.2617187 q -0.4414062,0 -0.796875,0.1445312 -0.3515625,0.140625 -0.6289063,0.4414063 -0.2695312,0.2929687 -0.421875,0.7421874 -0.1484375,0.4453125 -0.1484375,1.03125 0,0.6132813 0.1640625,1.0546876 0.1679688,0.4414062 0.4296875,0.71875 0.2734376,0.28906245 0.6367188,0.42968745 Q 2.8515625,-0.5625 3.2578125,-0.5625 q 0.5585938,0 1.046875,-0.19140625 Q 4.7929687,-0.9453125 5.21875,-1.328125 h 0.054687 z"
       style="font-size:8px;font-family:Champagne"
       id="path1259" /><path
       d="M 10.960938,0 H 10.136719 L 9.5664063,-1.6210937 H 7.0507812 L 6.4804687,0 H 5.6953125 L 7.8125,-5.8164062 H 8.84375 Z M 9.328125,-2.2851563 8.3085938,-5.140625 7.2851562,-2.2851563 Z"
       style="font-size:8px;font-family:Champagne"
       id="path1261" /><path
       d="M 17.023437,0 H 16.25 v -5.0117187 l -1.617187,3.4101562 H 14.171875 L 12.566406,-5.0117187 V 0 H 11.84375 v -5.8164062 h 1.054688 l 1.550781,3.2382812 1.5,-3.2382812 h 1.074218 z"
       style="font-size:8px;font-family:Champagne"
       id="path1263" /><path
       d="M 22.425781,0 H 18.59375 v -5.8164062 h 3.832031 v 0.6875 h -3.058594 v 1.5937499 h 3.058594 v 0.6875 H 19.367187 V -0.6875 h 3.058594 z"
       style="font-size:8px;font-family:Champagne"
       id="path1265" /><path
       d="M 28.46875,0 H 27.464844 L 25.519531,-2.3125 H 24.429687 V 0 H 23.65625 v -5.8164062 h 1.628906 q 0.527344,0 0.878906,0.070312 0.351563,0.066406 0.632813,0.2421875 0.316406,0.1992187 0.492187,0.5039062 0.179688,0.3007813 0.179688,0.765625 0,0.6289062 -0.316406,1.0546875 -0.316407,0.421875 -0.871094,0.6367187 z m -1.808594,-4.1796875 q 0,-0.25 -0.08984,-0.4414062 -0.08594,-0.1953125 -0.289062,-0.328125 -0.167969,-0.1132813 -0.398438,-0.15625 -0.230468,-0.046875 -0.542968,-0.046875 h -0.910157 v 2.1953124 h 0.78125 q 0.367188,0 0.640625,-0.0625 0.273438,-0.066406 0.464844,-0.2421875 0.175781,-0.1640625 0.257813,-0.375 0.08594,-0.2148437 0.08594,-0.5429687 z"
       style="font-size:8px;font-family:Champagne"
       id="path1267" /><path
       d="M 33.804687,0 H 32.980469 L 32.410156,-1.6210937 H 29.894531 L 29.324219,0 h -0.785157 l 2.117188,-5.8164062 h 1.03125 z m -1.632812,-2.2851563 -1.019531,-2.8554687 -1.023438,2.8554687 z"
       style="font-size:8px;font-family:Champagne"
       id="path1269" /><path
       d="M 38.367187,-5.1289062 H 36.289062 V 0 H 35.515625 V -5.1289062 H 33.4375 v -0.6875 h 4.929687 z"
       style="font-size:8px;font-family:Champagne"
       id="path1271" /><path
       d="M 43.273437,0 H 42.449219 L 41.878906,-1.6210937 H 39.363281 L 38.792969,0 H 38.007812 L 40.125,-5.8164062 h 1.03125 z m -1.632812,-2.2851563 -1.019531,-2.8554687 -1.023438,2.8554687 z"
       style="font-size:8px;font-family:Champagne"
       id="path1273" /></g></svg>