<?xml version="1.0" encoding="UTF-8" standalone="no"?>
<svg
   xmlns:dc="http://purl.org/dc/elements/1.1/"
   xmlns:cc="http://creativecommons.org/ns#"
   xmlns:rdf="http://www.w3.org/1999/02/22-rdf-syntax-ns#"
   xmlns:svg="http://www.w3.org/2000/svg"
   xmlns="http://www.w3.org/2000/svg"
   xmlns:sodipodi="http://sodipodi.sourceforge.net/DTD/sodipodi-0.dtd"
   xmlns:inkscape="http://www.inkscape.org/namespaces/inkscape"
   viewBox="0 0 13.391999 13.106667"
   height="13.106667"
   width="13.391999"
   xml:space="preserve"
   id="svg2"
   version="1.1"
   sodipodi:docname="youtube.svg"
   inkscape:version="0.92.4 (5da689c313, 2019-01-14)"><sodipodi:namedview
     pagecolor="#ffffff"
     bordercolor="#666666"
     borderopacity="1"
     objecttolerance="10"
     gridtolerance="10"
     guidetolerance="10"
     inkscape:pageopacity="0"
     inkscape:pageshadow="2"
     inkscape:window-width="1708"
     inkscape:window-height="881"
     id="namedview20"
     showgrid="false"
     inkscape:zoom="11.508772"
     inkscape:cx="-11.489891"
     inkscape:cy="16.885334"
     inkscape:window-x="-9"
     inkscape:window-y="-9"
     inkscape:window-maximized="1"
     inkscape:current-layer="g14"
     inkscape:snap-bbox="false"
     inkscape:snap-bbox-midpoints="false" /><metadata
     id="metadata8"><rdf:RDF><cc:Work
         rdf:about=""><dc:format>image/svg+xml</dc:format><dc:type
           rdf:resource="http://purl.org/dc/dcmitype/StillImage" /></cc:Work></rdf:RDF></metadata><defs
     id="defs6"><clipPath
       id="clipPath18"
       clipPathUnits="userSpaceOnUse"><path
         id="path16"
         d="M 0,10.875 H 10.849 V 0 H 0 Z"
         inkscape:connector-curvature="0" /></clipPath></defs><g
     transform="matrix(1.3333333,0,0,-1.3333333,-0.78639998,13.802)"
     id="g10"><g
       id="g12"><g
         clip-path="url(#clipPath18)"
         id="g14"><g
           transform="translate(0.5898,5.4375)"
           id="g20"><path
             id="path22"
             style="fill:#000000;fill-opacity:1;fill-rule:nonzero;stroke:none"
             d="m 0,0 c 0,-2.717 2.248,-4.916 5.022,-4.916 2.774,0 5.022,2.199 5.022,4.916 0,2.712 -2.248,4.914 -5.022,4.914 C 2.248,4.914 0,2.712 0,0"
             inkscape:connector-curvature="0" /></g><g
           transform="translate(5.6006,9.6431)"
           id="g24"><path
             id="path26"
             style="fill:#ffffff;fill-opacity:1;fill-rule:nonzero;stroke:none"
             d="m 0,0 c -2.332,0 -4.229,-1.898 -4.229,-4.23 0,-2.332 1.897,-4.23 4.229,-4.23 2.333,0 4.23,1.898 4.23,4.23 C 4.23,-1.898 2.333,0 0,0 m 0,-8.904 c -2.578,0 -4.675,2.096 -4.675,4.674 0,2.578 2.097,4.676 4.675,4.676 2.578,0 4.676,-2.098 4.676,-4.676 0,-2.578 -2.098,-4.674 -4.676,-4.674"
             inkscape:connector-curvature="0" /></g><g
           transform="translate(5.6978,6.3979)"
           id="g36" /><path
           inkscape:connector-curvature="0"
           style="fill:#ffffff;fill-opacity:1;stroke-width:0.01171253"
           d="m 8.6764419,6.9815819 c -0.07357,0.2770014 -0.290318,0.495159 -0.5655281,0.5691939 -0.4988359,0.1345301 -2.499114,0.1345301 -2.499114,0.1345301 0,0 -2.000266,0 -2.4991144,-0.1345301 C 2.8374761,7.4767292 2.6207241,7.2585833 2.5471576,6.9815819 2.4134942,6.4795009 2.4134942,5.4319556 2.4134942,5.4319556 c 0,0 0,-1.0475455 0.1336634,-1.5496266 C 2.6207246,3.6053278 2.8374761,3.3962591 3.1126855,3.3222242 3.6115339,3.1876941 5.6117999,3.1876941 5.6117999,3.1876941 c 0,0 2.000266,0 2.4991139,0.1345301 0.27521,0.074035 0.491962,0.2831036 0.5655281,0.5601048 0.1336639,0.5020811 0.1336639,1.5496266 0.1336639,1.5496266 0,0 0,1.0475453 -0.1336639,1.5496263 z M 4.9575964,4.4808629 V 6.3830482 L 6.6294319,5.4319321 Z"
           id="path2" /></g></g></g></svg>